<svg xmlns="http://www.w3.org/2000/svg" width="20" height="20" viewBox="0 0 20 20">
  <g id="diagram" transform="translate(-0.003 0.001)">
    <g id="Group_143" data-name="Group 143" transform="translate(1.67 2)">
      <g id="Group_142" data-name="Group 142">
        <rect id="Rectangle_40" data-name="Rectangle 40" width="4.333" height="0.667" fill="#fff"/>
      </g>
    </g>
    <g id="Group_145" data-name="Group 145" transform="translate(1.67 3.333)">
      <g id="Group_144" data-name="Group 144">
        <rect id="Rectangle_41" data-name="Rectangle 41" width="4.333" height="0.667" fill="#fff"/>
      </g>
    </g>
    <g id="Group_147" data-name="Group 147" transform="translate(1.67 4.666)">
      <g id="Group_146" data-name="Group 146">
        <rect id="Rectangle_42" data-name="Rectangle 42" width="3" height="0.667" fill="#fff"/>
      </g>
    </g>
    <g id="Group_149" data-name="Group 149" transform="translate(1.67 6)">
      <g id="Group_148" data-name="Group 148">
        <rect id="Rectangle_43" data-name="Rectangle 43" width="3" height="0.667" fill="#fff"/>
      </g>
    </g>
    <g id="Group_151" data-name="Group 151" transform="translate(0.003 19.333)">
      <g id="Group_150" data-name="Group 150" transform="translate(0)">
        <rect id="Rectangle_44" data-name="Rectangle 44" width="20" height="0.667" fill="#fff"/>
      </g>
    </g>
    <g id="Group_153" data-name="Group 153" transform="translate(1.308 -0.001)">
      <g id="Group_152" data-name="Group 152">
        <path id="Path_528" data-name="Path 528" d="M49.316,2.851,47.983.184a.333.333,0,0,0-.447-.149h0L44.869,1.368a.333.333,0,1,0,.3.6L47.1,1l-.527,1.5A17.788,17.788,0,0,1,31.323,14.333L31.38,15A18.455,18.455,0,0,0,47.2,2.724l.538-1.537.981,1.962a.333.333,0,1,0,.6-.3Z" transform="translate(-31.323 0.001)" fill="#fff"/>
      </g>
    </g>
    <g id="Group_155" data-name="Group 155" transform="translate(1.336 16)">
      <g id="Group_154" data-name="Group 154">
        <path id="Path_529" data-name="Path 529" d="M34.67,384.006H32.336a.333.333,0,0,0-.333.333v2a.333.333,0,0,0,.333.333H34.67a.333.333,0,0,0,.333-.333v-2A.333.333,0,0,0,34.67,384.006Zm-.333,2H32.67v-1.333h1.667Z" transform="translate(-32.003 -384.006)" fill="#fff"/>
      </g>
    </g>
    <g id="Group_157" data-name="Group 157" transform="translate(5.003 15)">
      <g id="Group_156" data-name="Group 156">
        <path id="Path_530" data-name="Path 530" d="M122.67,360.006h-2.333a.333.333,0,0,0-.333.333v3a.333.333,0,0,0,.333.333h2.333a.333.333,0,0,0,.333-.333v-3A.333.333,0,0,0,122.67,360.006Zm-.333,3H120.67v-2.333h1.667Z" transform="translate(-120.003 -360.006)" fill="#fff"/>
      </g>
    </g>
    <g id="Group_159" data-name="Group 159" transform="translate(8.67 13.333)">
      <g id="Group_158" data-name="Group 158">
        <path id="Path_531" data-name="Path 531" d="M210.67,320.006h-2.333a.333.333,0,0,0-.333.333v4.667a.333.333,0,0,0,.333.333h2.333a.333.333,0,0,0,.333-.333v-4.667A.333.333,0,0,0,210.67,320.006Zm-.333,4.667H208.67v-4h1.667Z" transform="translate(-208.003 -320.006)" fill="#fff"/>
      </g>
    </g>
    <g id="Group_161" data-name="Group 161" transform="translate(12.336 11)">
      <g id="Group_160" data-name="Group 160">
        <path id="Path_532" data-name="Path 532" d="M298.67,264.006h-2.333a.333.333,0,0,0-.333.333v7a.333.333,0,0,0,.333.333h2.333a.333.333,0,0,0,.333-.333v-7A.333.333,0,0,0,298.67,264.006Zm-.333,7H296.67v-6.333h1.667Z" transform="translate(-296.003 -264.006)" fill="#fff"/>
      </g>
    </g>
    <g id="Group_163" data-name="Group 163" transform="translate(16.003 6.333)">
      <g id="Group_162" data-name="Group 162" transform="translate(0)">
        <path id="Path_533" data-name="Path 533" d="M386.67,152.006h-2.333a.333.333,0,0,0-.333.333v11.667a.333.333,0,0,0,.333.333h2.333a.333.333,0,0,0,.333-.333V152.339A.333.333,0,0,0,386.67,152.006Zm-.333,11.667H384.67v-11h1.667Z" transform="translate(-384.003 -152.006)" fill="#fff"/>
      </g>
    </g>
  </g>
</svg>
