<svg xmlns="http://www.w3.org/2000/svg" width="21.085" height="20" viewBox="0 0 21.085 20">
  <path id="recruitment" d="M22.984,21.973a1.935,1.935,0,0,0,.5-1.3,1.977,1.977,0,0,0-3.874-.531A2.7,2.7,0,0,0,19,19.765a1.935,1.935,0,0,0,.506-1.305,1.974,1.974,0,0,0-3.949,0,1.935,1.935,0,0,0,.506,1.3,2.68,2.68,0,0,0-1.228,1.083,5.976,5.976,0,0,0-1.586,0,2.68,2.68,0,0,0-1.228-1.083,1.935,1.935,0,0,0,.506-1.3,1.974,1.974,0,0,0-3.949,0,1.935,1.935,0,0,0,.506,1.305,2.7,2.7,0,0,0-.615.374A1.977,1.977,0,0,0,4.6,20.67a1.935,1.935,0,0,0,.5,1.3,2.655,2.655,0,0,0-1.6,2.44v1.322a.313.313,0,0,0,.313.313h4.31a5.961,5.961,0,0,0,5.919,6.669,5.926,5.926,0,0,0,3.175-.918l4.32,4.32a1.321,1.321,0,0,0,1.869-1.869l-4.32-4.32A5.926,5.926,0,0,0,20,26.756a5.993,5.993,0,0,0-.042-.707h4.31a.313.313,0,0,0,.313-.313V24.414a2.655,2.655,0,0,0-1.6-2.44Zm-1.47-2.631a1.328,1.328,0,1,1-1.348,1.328A1.339,1.339,0,0,1,21.514,19.343Zm-3.982-2.21a1.328,1.328,0,1,1-1.348,1.328A1.339,1.339,0,0,1,17.532,17.132Zm-.857,3.087a1.991,1.991,0,0,0,1.715,0,2.058,2.058,0,0,1,1.175.761,1.94,1.94,0,0,0,.481.994,2.69,2.69,0,0,0-1.272,1.158A5.976,5.976,0,0,0,15.5,20.976,2.043,2.043,0,0,1,16.675,20.22Zm-6.122-3.087A1.328,1.328,0,1,1,9.205,18.46,1.339,1.339,0,0,1,10.553,17.132ZM9.7,20.22a1.991,1.991,0,0,0,1.715,0,2.042,2.042,0,0,1,1.172.756,5.976,5.976,0,0,0-3.27,2.157A2.69,2.69,0,0,0,8.04,21.975a1.94,1.94,0,0,0,.481-.994A2.058,2.058,0,0,1,9.7,20.22Zm-3.124-.877A1.328,1.328,0,1,1,5.223,20.67a1.339,1.339,0,0,1,1.348-1.328Zm-2.445,6.08V24.414A2.03,2.03,0,0,1,5.714,22.43a1.991,1.991,0,0,0,1.715,0A2.05,2.05,0,0,1,8.9,23.742a5.925,5.925,0,0,0-.67,1.681H4.126Zm19.04,9.763a.694.694,0,0,1-1.185.491l-.522-.522.983-.983.522.522A.69.69,0,0,1,23.166,35.185ZM22,33.729l-.983.983-3.28-3.28a6.016,6.016,0,0,0,.983-.983Zm-7.956-1.638a5.335,5.335,0,1,1,5.335-5.335A5.341,5.341,0,0,1,14.043,32.091Zm9.916-6.669H19.854a5.924,5.924,0,0,0-.67-1.681,2.05,2.05,0,0,1,1.473-1.312,1.991,1.991,0,0,0,1.715,0,2.03,2.03,0,0,1,1.587,1.984v1.009Zm-9.916-3.37a4.7,4.7,0,1,0,4.7,4.7,4.709,4.709,0,0,0-4.7-4.7ZM11.7,30.094v-.218a1.94,1.94,0,0,1,1.513-1.895,1.926,1.926,0,0,0,1.652,0,1.94,1.94,0,0,1,1.513,1.895v.218a4.069,4.069,0,0,1-4.678,0Zm2.339-2.553a1.264,1.264,0,1,1,1.284-1.264A1.276,1.276,0,0,1,14.043,27.541Zm2.947,2.031a2.564,2.564,0,0,0-1.514-2.047,1.871,1.871,0,0,0,.477-1.248,1.91,1.91,0,0,0-3.82,0,1.871,1.871,0,0,0,.477,1.248A2.564,2.564,0,0,0,11.1,29.572a4.078,4.078,0,1,1,5.893,0Z" transform="translate(-3.5 -16.506)" fill="#fff"/>
</svg>
