<svg xmlns="http://www.w3.org/2000/svg" width="20.034" height="20" viewBox="0 0 20.034 20">
  <g id="online-education" transform="translate(0 -0.526)">
    <g id="Icons_20_" transform="translate(0 0.526)">
      <g id="Group_141" data-name="Group 141" transform="translate(0 0)">
        <g id="Group_134" data-name="Group 134" transform="translate(4.998)">
          <path id="Path_514" data-name="Path 514" d="M154.966,5.277A2.375,2.375,0,1,1,157.344,2.9,2.379,2.379,0,0,1,154.966,5.277Zm0-3.919a1.54,1.54,0,1,0,1.54,1.54A1.542,1.542,0,0,0,154.966,1.358Z" transform="translate(-152.587 -0.526)" fill="#fff"/>
        </g>
        <g id="Group_135" data-name="Group 135" transform="translate(1.939 5.129)">
          <path id="Path_515" data-name="Path 515" d="M70,171.9H68.042l-.371-.234-2.331-4.668H61.194a1.758,1.758,0,0,1-1.389-.584,3.367,3.367,0,0,1-.612-2.324l.034-.131,3.06-6.855.763.337-3.032,6.786a2.468,2.468,0,0,0,.413,1.623.976.976,0,0,0,.77.3h4.407l.371.234,2.331,4.668h1.134l-2.186-7H63.147l-.371-.605,2.448-4.9.667-.11,1.836,1.836h3.252v.832H67.554l-.3-.124-1.547-1.547-1.884,3.774h3.726l.4.3,2.448,7.851Z" transform="translate(-59.179 -157.1)" fill="#fff"/>
        </g>
        <g id="Group_136" data-name="Group 136" transform="translate(11.399 3.389)">
          <path id="Path_516" data-name="Path 516" d="M354.212,109.766H351.09v-.839h2.537l1.54-4.091h-5.28l-1.128,2.819-.77-.309L349.323,104h7.047Z" transform="translate(-347.99 -103.998)" fill="#fff"/>
        </g>
        <g id="Group_137" data-name="Group 137" transform="translate(9.825 9.79)">
          <path id="Path_517" data-name="Path 517" d="M310.136,309.612H309.3v-9.378h-9.378V299.4h10.21Z" transform="translate(-299.926 -299.402)" fill="#fff"/>
        </g>
        <g id="Group_138" data-name="Group 138" transform="translate(0 6.745)">
          <path id="Path_518" data-name="Path 518" d="M7.274,216.144H1.891A1.888,1.888,0,0,1,0,214.26v-7.838H.832v7.831A1.056,1.056,0,0,0,1.884,215.3H7.267v.839Z" transform="translate(0 -206.422)" fill="#fff"/>
        </g>
        <g id="Group_139" data-name="Group 139" transform="translate(1.471 17.807)">
          <path id="Path_519" data-name="Path 519" d="M49.666,546.287h-.832v-.433a.889.889,0,0,0-.887-.887H46.641a.889.889,0,0,0-.887.887v.433h-.839v-.433a1.727,1.727,0,0,1,1.726-1.726h1.306a1.727,1.727,0,0,1,1.726,1.726v.433Z" transform="translate(-44.915 -544.128)" fill="#fff"/>
        </g>
        <g id="Group_140" data-name="Group 140" transform="translate(3.431 16.047)">
          <path id="Path_520" data-name="Path 520" d="M104.733,490.4h.832v3.918h-.832Z" transform="translate(-104.733 -490.397)" fill="#fff"/>
        </g>
      </g>
    </g>
  </g>
</svg>
