<svg xmlns="http://www.w3.org/2000/svg" width="21.292" height="20" viewBox="0 0 21.292 20">
  <path id="payroll" d="M22.586,35.069,20.033,22.894a.233.233,0,0,0-.276-.18l-3.486.731V19.3a1.027,1.027,0,0,0-1.028-1.028h-.535v-.539A1.027,1.027,0,0,0,13.68,16.7H2.328A1.027,1.027,0,0,0,1.3,17.728v16.38a1.027,1.027,0,0,0,1.028,1.028h.531v.535A1.03,1.03,0,0,0,3.887,36.7H15.243a1.026,1.026,0,0,0,.472-.117.233.233,0,0,0,.251.113l6.441-1.35A.231.231,0,0,0,22.586,35.069ZM3.035,18.719a1.052,1.052,0,0,0-.176.577V34.672H2.328a.56.56,0,0,1-.56-.56V17.728a.56.56,0,0,1,.56-.56H13.68a.56.56,0,0,1,.56.56v.535H3.887A1.029,1.029,0,0,0,3.035,18.719ZM15.243,36.235H3.887a.56.56,0,0,1-.56-.56V19.3a.563.563,0,0,1,.56-.56H15.243a.56.56,0,0,1,.56.56v4.246l-2.366.5-.125.025a.231.231,0,0,0-.18.276l.1.493L9.571,27.579a.238.238,0,0,0-.05.33L15.573,36l.021.109a.558.558,0,0,1-.351.13Zm-3.762-8.823a.859.859,0,0,1-.171,1.2.234.234,0,0,0-.046.33L15.2,34.2l.146.706-5.308-7.093,3.3-2.47.071.33-1.885,1.4A.242.242,0,0,0,11.481,27.412Zm.284,1.417a1.329,1.329,0,0,0,.213-1.5l1.538-1.149,1.454,6.934Zm4.334,7.36c-.489-2.341-1.96-9.333-2.458-11.715,1.421-.3,4.543-.953,5.985-1.258l2.453,11.719ZM19.381,24.7a.861.861,0,0,1-1.016-.665.231.231,0,0,0-.276-.18l-2.788.585a.231.231,0,0,0-.18.276.858.858,0,0,1-.665,1.016.231.231,0,0,0-.18.276l1.789,8.522a.231.231,0,0,0,.276.18.855.855,0,0,1,1.011.66.239.239,0,0,0,.276.184l2.792-.585a.233.233,0,0,0,.18-.276.863.863,0,0,1,.66-1.016.231.231,0,0,0,.18-.276l-1.789-8.522a.223.223,0,0,0-.272-.18Zm1.563,8.589a1.332,1.332,0,0,0-.828,1.266l-2.374.5a1.328,1.328,0,0,0-1.266-.828l-1.7-8.1a1.332,1.332,0,0,0,.828-1.266l2.37-.5a1.334,1.334,0,0,0,1.266.828Zm-3.423-5.22a1.673,1.673,0,1,0,1.743,2.554A1.677,1.677,0,0,0,17.521,28.068Zm.589,2.817a1.2,1.2,0,1,1,.414-2.186A1.212,1.212,0,0,1,18.11,30.885Zm-13.7-7.5.456.046c.017.046.038.092.059.142l-.293.355a.389.389,0,0,0,.029.51l.552.552a.38.38,0,0,0,.514.029l.355-.288a1.442,1.442,0,0,0,.142.059l.046.456a.381.381,0,0,0,.38.343h.777a.381.381,0,0,0,.38-.343l.046-.456A1.442,1.442,0,0,0,8,24.729l.355.288a.38.38,0,0,0,.514-.025l.556-.556a.384.384,0,0,0,.025-.51l-.288-.355c.021-.046.042-.1.059-.142l.451-.046a.382.382,0,0,0,.347-.38v-.782a.381.381,0,0,0-.343-.38l-.456-.046c-.017-.046-.038-.1-.059-.142l.288-.351a.384.384,0,0,0-.025-.514l-.552-.552a.375.375,0,0,0-.51-.025L8,20.5a1.443,1.443,0,0,0-.142-.059l-.054-.456a.381.381,0,0,0-.38-.339H6.65a.381.381,0,0,0-.38.343l-.046.456c-.046.017-.1.038-.142.059l-.351-.284a.384.384,0,0,0-.514.025l-.552.552a.379.379,0,0,0-.025.51l.288.355a1.444,1.444,0,0,0-.059.142l-.456.046a.381.381,0,0,0-.343.38v.782a.376.376,0,0,0,.339.372ZM4.535,22.3l.527-.054a.228.228,0,0,0,.2-.167c.029-.2.272-.41.117-.606l-.334-.41.443-.439.41.334c.2.15.4-.088.606-.117a.228.228,0,0,0,.167-.2l.054-.527h.623l.054.527a.228.228,0,0,0,.167.2c.2.029.405.267.606.117l.414-.334.439.439-.334.41c-.15.2.088.4.121.606a.228.228,0,0,0,.2.163l.527.054v.623l-.527.054c-.2.017-.213.251-.288.4-.063.117-.134.259-.033.376l.334.41-.439.439-.414-.334c-.2-.15-.4.088-.606.121a.234.234,0,0,0-.163.2l-.059.531H6.725l-.054-.527a.239.239,0,0,0-.163-.2c-.209-.033-.41-.272-.606-.121l-.41.334-.443-.439.334-.41c.1-.113.033-.259-.029-.372-.084-.159-.079-.38-.288-.405l-.527-.054V22.3Zm2.5,1.689a1.377,1.377,0,0,0,0-2.754A1.377,1.377,0,0,0,7.034,23.989Zm0-2.282a.909.909,0,1,1-.907.911A.914.914,0,0,1,7.034,21.707Zm.192,5.805H4.3a.234.234,0,0,1,0-.468H7.227A.234.234,0,0,1,7.227,27.513Zm0,1.283a.234.234,0,0,1,0,.468H4.3a.234.234,0,0,1,0-.468Zm-3.16,1.989a.234.234,0,0,1,.234-.234h5.847a.234.234,0,1,1,0,.468H4.3A.234.234,0,0,1,4.067,30.785Zm7.619,1.751a.234.234,0,0,1-.234.234H4.3a.234.234,0,0,1,0-.468h7.151A.234.234,0,0,1,11.686,32.536Zm-.234,1.985H4.3a.234.234,0,0,1,0-.468h7.151A.234.234,0,0,1,11.452,34.522Z" transform="translate(-1.3 -16.7)" fill="#fff"/>
</svg>
