<svg xmlns="http://www.w3.org/2000/svg" width="28.801" height="24" viewBox="0 0 28.801 24">
  <g id="trolley" transform="translate(0 -4)">
    <path id="Path_646" data-name="Path 646" d="M22.909,22H12.116a3.488,3.488,0,0,1-3.358-2.484L5.111,7.155A1.08,1.08,0,0,0,4.058,6.4H1.2A1.2,1.2,0,1,1,1.2,4H4.058A3.487,3.487,0,0,1,7.415,6.484L8.1,8.8H26.452a2.366,2.366,0,0,1,1.9.954,2.267,2.267,0,0,1,.346,2.035l-2.476,7.858A3.483,3.483,0,0,1,22.909,22Zm3.544-10.8h.012Z" fill="#fff"/>
    <path id="Path_647" data-name="Path 647" d="M11.4,24.8a2.4,2.4,0,1,1,2.4-2.4A2.4,2.4,0,0,1,11.4,24.8Zm0-2.4h0Z" transform="translate(1.8 3.2)" fill="#fff"/>
    <path id="Path_648" data-name="Path 648" d="M18.4,24.8a2.4,2.4,0,1,1,2.4-2.4A2.4,2.4,0,0,1,18.4,24.8Zm0-2.4h0Z" transform="translate(3.2 3.2)" fill="#fff"/>
  </g>
</svg>
