<svg xmlns="http://www.w3.org/2000/svg" width="35.06" height="35" viewBox="0 0 35.06 35">
  <g id="online-education" transform="translate(0 -0.526)">
    <g id="Icons_20_" transform="translate(0 0.526)">
      <g id="Group_141" data-name="Group 141" transform="translate(0 0)">
        <g id="Group_134" data-name="Group 134" transform="translate(8.747)">
          <path id="Path_514" data-name="Path 514" d="M156.75,8.84a4.157,4.157,0,1,1,4.163-4.151A4.164,4.164,0,0,1,156.75,8.84Zm0-6.858a2.7,2.7,0,1,0,2.7,2.7A2.7,2.7,0,0,0,156.75,1.982Z" transform="translate(-152.587 -0.526)" fill="#fff"/>
        </g>
        <g id="Group_135" data-name="Group 135" transform="translate(3.392 8.976)">
          <path id="Path_515" data-name="Path 515" d="M78.118,182.992H74.689l-.65-.409-4.079-8.169H62.705a3.076,3.076,0,0,1-2.43-1.023c-1.323-1.456-1.083-3.958-1.071-4.067l.06-.229,5.354-12,1.336.59-5.306,11.875a4.318,4.318,0,0,0,.722,2.839,1.707,1.707,0,0,0,1.348.529h7.712l.65.409,4.079,8.169h1.985l-3.826-12.248H66.122l-.65-1.059,4.283-8.567,1.167-.193,3.212,3.212h5.691v1.456H73.834l-.517-.217-2.707-2.707-3.3,6.605h6.521l.7.517,4.283,13.74Z" transform="translate(-59.179 -157.1)" fill="#fff"/>
        </g>
        <g id="Group_136" data-name="Group 136" transform="translate(19.948 5.932)">
          <path id="Path_516" data-name="Path 516" d="M358.879,114.093h-5.462v-1.468h4.44l2.7-7.159h-9.24l-1.973,4.933-1.348-.541L350.324,104h12.332Z" transform="translate(-347.99 -103.998)" fill="#fff"/>
        </g>
        <g id="Group_137" data-name="Group 137" transform="translate(17.193 17.133)">
          <path id="Path_517" data-name="Path 517" d="M317.793,317.269h-1.456V300.858H299.926V299.4h17.867Z" transform="translate(-299.926 -299.402)" fill="#fff"/>
        </g>
        <g id="Group_138" data-name="Group 138" transform="translate(0 11.803)">
          <path id="Path_518" data-name="Path 518" d="M12.73,223.435H3.309A3.3,3.3,0,0,1,0,220.138V206.422H1.456v13.7A1.849,1.849,0,0,0,3.3,221.967h9.421v1.468Z" transform="translate(0 -206.422)" fill="#fff"/>
        </g>
        <g id="Group_139" data-name="Group 139" transform="translate(2.575 31.162)">
          <path id="Path_519" data-name="Path 519" d="M53.229,547.906H51.773v-.758a1.556,1.556,0,0,0-1.552-1.552H47.935a1.556,1.556,0,0,0-1.552,1.552v.758H44.915v-.758a3.022,3.022,0,0,1,3.02-3.02h2.286a3.022,3.022,0,0,1,3.02,3.02v.758Z" transform="translate(-44.915 -544.128)" fill="#fff"/>
        </g>
        <g id="Group_140" data-name="Group 140" transform="translate(6.004 28.082)">
          <path id="Path_520" data-name="Path 520" d="M104.733,490.4h1.456v6.858h-1.456Z" transform="translate(-104.733 -490.397)" fill="#fff"/>
        </g>
      </g>
    </g>
  </g>
</svg>
