<svg xmlns="http://www.w3.org/2000/svg" width="36.9" height="35" viewBox="0 0 36.9 35">
  <path id="recruitment" d="M37.6,26.074a3.385,3.385,0,0,0,.883-2.28,3.459,3.459,0,0,0-6.779-.929,4.73,4.73,0,0,0-1.075-.655,3.386,3.386,0,0,0,.886-2.284,3.455,3.455,0,0,0-6.91,0,3.386,3.386,0,0,0,.885,2.282,4.689,4.689,0,0,0-2.148,1.9,10.457,10.457,0,0,0-2.776,0,4.689,4.689,0,0,0-2.148-1.9,3.386,3.386,0,0,0,.885-2.282,3.455,3.455,0,0,0-6.91,0,3.385,3.385,0,0,0,.886,2.284,4.73,4.73,0,0,0-1.075.655,3.459,3.459,0,0,0-6.779.929,3.385,3.385,0,0,0,.883,2.28,4.646,4.646,0,0,0-2.8,4.271v2.313a.548.548,0,0,0,.548.548h7.543A10.432,10.432,0,0,0,21.95,44.876a10.37,10.37,0,0,0,5.556-1.606l7.56,7.56a2.312,2.312,0,0,0,3.27-3.27L30.776,40a10.37,10.37,0,0,0,1.606-5.556,10.488,10.488,0,0,0-.074-1.238h7.543a.548.548,0,0,0,.548-.548V30.345a4.646,4.646,0,0,0-2.8-4.271Zm-2.572-4.6a2.324,2.324,0,1,1-2.359,2.323A2.344,2.344,0,0,1,35.025,21.47ZM28.056,17.6A2.324,2.324,0,1,1,25.7,19.925,2.344,2.344,0,0,1,28.056,17.6Zm-1.5,5.4a3.484,3.484,0,0,0,3,0,3.6,3.6,0,0,1,2.057,1.333,3.4,3.4,0,0,0,.841,1.739A4.708,4.708,0,0,0,30.229,28.1a10.458,10.458,0,0,0-5.723-3.776A3.575,3.575,0,0,1,26.556,23.005ZM15.843,17.6a2.324,2.324,0,1,1-2.359,2.323A2.344,2.344,0,0,1,15.843,17.6Zm-1.5,5.4a3.484,3.484,0,0,0,3,0,3.574,3.574,0,0,1,2.051,1.323A10.458,10.458,0,0,0,13.671,28.1a4.708,4.708,0,0,0-2.226-2.027,3.4,3.4,0,0,0,.841-1.739A3.6,3.6,0,0,1,14.342,23ZM8.875,21.47a2.324,2.324,0,1,1-2.359,2.323A2.344,2.344,0,0,1,8.875,21.47ZM4.6,32.11V30.345a3.553,3.553,0,0,1,2.778-3.472,3.483,3.483,0,0,0,3,0,3.588,3.588,0,0,1,2.577,2.3,10.368,10.368,0,0,0-1.172,2.941H4.6ZM37.915,49.195a1.214,1.214,0,0,1-2.074.86l-.913-.913,1.72-1.72.913.913A1.207,1.207,0,0,1,37.915,49.195Zm-2.042-2.548-1.72,1.72-5.74-5.74a10.528,10.528,0,0,0,1.72-1.72ZM21.95,43.78a9.337,9.337,0,1,1,9.337-9.336A9.347,9.347,0,0,1,21.95,43.78ZM39.3,32.11H32.119a10.367,10.367,0,0,0-1.172-2.941,3.588,3.588,0,0,1,2.577-2.3,3.483,3.483,0,0,0,3,0A3.553,3.553,0,0,1,39.3,30.345V32.11Zm-17.354-5.9a8.232,8.232,0,1,0,8.232,8.232,8.241,8.241,0,0,0-8.232-8.232ZM17.857,40.286V39.9A3.4,3.4,0,0,1,20.5,36.588a3.371,3.371,0,0,0,2.891,0A3.4,3.4,0,0,1,26.043,39.9v.382a7.121,7.121,0,0,1-8.186,0Zm4.093-4.468A2.213,2.213,0,1,1,24.2,33.6,2.232,2.232,0,0,1,21.95,35.817Zm5.157,3.554a4.486,4.486,0,0,0-2.649-3.581,3.275,3.275,0,0,0,.836-2.185,3.343,3.343,0,0,0-6.686,0,3.275,3.275,0,0,0,.836,2.185,4.486,4.486,0,0,0-2.649,3.581,7.136,7.136,0,1,1,10.313,0Z" transform="translate(-3.5 -16.506)" fill="#fff"/>
</svg>
