<svg xmlns="http://www.w3.org/2000/svg" width="33.291" height="35" viewBox="0 0 33.291 35">
  <path id="team-management" d="M31.739,28.312a11.237,11.237,0,0,0-1.172-.225,3.344,3.344,0,0,0,1.048-2.511,2.471,2.471,0,1,0-4.939,0,3.346,3.346,0,0,0,1.044,2.507,10.372,10.372,0,0,0-1.173.23c-1.411.363-2.221,1.186-2.221,2.259v3.269A1.16,1.16,0,0,0,25.485,35h7.321a1.16,1.16,0,0,0,1.159-1.159V30.572c0-1.086-.811-1.91-2.226-2.26Zm-2.594-4.19c.628,0,1.376.252,1.376,1.454,0,1.073-.63,1.98-1.376,1.98s-1.376-.907-1.376-1.98C27.77,24.374,28.518,24.122,29.145,24.122Zm3.726,9.719a.066.066,0,0,1-.065.065h-.783V31.464a.547.547,0,0,0-1.094,0v2.442H27.361V31.464a.547.547,0,0,0-1.094,0v2.442h-.783a.066.066,0,0,1-.065-.065V30.572c0-.694.761-1.036,1.4-1.2a9.226,9.226,0,0,1,2.3-.292,9.751,9.751,0,0,1,2.352.293c.521.129,1.4.457,1.4,1.2Zm10.694-5.53a11.235,11.235,0,0,0-1.172-.225,3.345,3.345,0,0,0,1.048-2.511,2.471,2.471,0,1,0-4.939,0,3.346,3.346,0,0,0,1.044,2.507,10.373,10.373,0,0,0-1.173.23c-1.411.363-2.221,1.186-2.221,2.259v3.269A1.16,1.16,0,0,0,37.311,35h7.321a1.16,1.16,0,0,0,1.159-1.159V30.572C45.791,29.486,44.98,28.662,43.565,28.312Zm-2.594-4.19c.628,0,1.376.252,1.376,1.454,0,1.073-.63,1.98-1.376,1.98s-1.376-.907-1.376-1.98C39.6,24.374,40.344,24.122,40.972,24.122ZM44.7,33.841a.066.066,0,0,1-.065.065H43.85V31.464a.547.547,0,0,0-1.094,0v2.442H39.187V31.464a.547.547,0,0,0-1.094,0v2.442h-.783a.066.066,0,0,1-.065-.065V30.572c0-.694.761-1.036,1.4-1.2a9.226,9.226,0,0,1,2.3-.292,9.751,9.751,0,0,1,2.352.293c.521.129,1.4.457,1.4,1.2Zm-24.784-5.53a11.2,11.2,0,0,0-1.172-.225,3.345,3.345,0,0,0,1.048-2.511,2.352,2.352,0,0,0-2.469-2.548,2.352,2.352,0,0,0-2.469,2.548,3.346,3.346,0,0,0,1.044,2.507,10.387,10.387,0,0,0-1.173.23C13.31,28.676,12.5,29.5,12.5,30.572v3.269A1.16,1.16,0,0,0,13.659,35H20.98a1.16,1.16,0,0,0,1.159-1.159V30.572c0-1.086-.811-1.91-2.226-2.261Zm-2.594-4.19c.628,0,1.376.252,1.376,1.454,0,1.073-.63,1.98-1.376,1.98s-1.376-.907-1.376-1.98C15.944,24.374,16.692,24.122,17.319,24.122Zm3.726,9.719a.066.066,0,0,1-.065.065H20.2V31.464a.547.547,0,0,0-1.094,0v2.442H15.535V31.464a.547.547,0,0,0-1.094,0v2.442h-.782a.066.066,0,0,1-.065-.065V30.572c0-.694.761-1.036,1.4-1.2a9.226,9.226,0,0,1,2.3-.292,9.75,9.75,0,0,1,2.352.293c.521.129,1.4.457,1.4,1.2v3.269Zm13.59-22.777a6.133,6.133,0,0,0,.391-.943l1.9-.3a.547.547,0,0,0,.46-.54V7.2a.547.547,0,0,0-.46-.54l-1.9-.3a6.135,6.135,0,0,0-.391-.943l1.126-1.556a.547.547,0,0,0-.056-.707l-1.47-1.47a.547.547,0,0,0-.707-.056L31.972,2.748a6.139,6.139,0,0,0-.943-.391l-.3-1.9A.547.547,0,0,0,30.185,0H28.106a.547.547,0,0,0-.54.46l-.3,1.9a6.138,6.138,0,0,0-.943.391L24.763,1.621a.547.547,0,0,0-.707.056l-1.47,1.47a.547.547,0,0,0-.056.707l1.126,1.556a6.139,6.139,0,0,0-.391.943l-1.9.3a.547.547,0,0,0-.46.54V9.277a.547.547,0,0,0,.46.54l1.9.3a6.141,6.141,0,0,0,.391.943L22.53,12.62a.547.547,0,0,0,.056.707l1.47,1.47a.547.547,0,0,0,.707.056l1.556-1.126a6.136,6.136,0,0,0,.943.391l.3,1.9a.547.547,0,0,0,.54.46h2.079a.547.547,0,0,0,.54-.46l.3-1.9a6.14,6.14,0,0,0,.943-.391l1.556,1.126a.547.547,0,0,0,.707-.056l1.47-1.47a.547.547,0,0,0,.056-.707Zm-.844,2.63-1.46-1.057a.547.547,0,0,0-.6-.027,5.05,5.05,0,0,1-1.324.549.547.547,0,0,0-.4.443l-.285,1.779H28.572L28.288,13.6a.547.547,0,0,0-.4-.443,5.049,5.049,0,0,1-1.324-.549.547.547,0,0,0-.6.027L24.5,13.694l-.811-.811,1.057-1.46a.547.547,0,0,0,.027-.6A5.051,5.051,0,0,1,24.224,9.5a.547.547,0,0,0-.443-.4L22,8.81V7.664l1.779-.285a.547.547,0,0,0,.443-.4,5.046,5.046,0,0,1,.549-1.324.547.547,0,0,0-.027-.6l-1.057-1.46L24.5,2.78l1.459,1.057a.547.547,0,0,0,.6.027,5.047,5.047,0,0,1,1.324-.549.547.547,0,0,0,.4-.443l.285-1.778h1.146L30,2.872a.547.547,0,0,0,.4.443,5.045,5.045,0,0,1,1.324.549.547.547,0,0,0,.6-.027l1.46-1.057.811.811-1.057,1.46a.547.547,0,0,0-.027.6,5.051,5.051,0,0,1,.549,1.324.547.547,0,0,0,.443.4l1.779.285V8.811L34.511,9.1a.547.547,0,0,0-.443.4,5.045,5.045,0,0,1-.549,1.324.547.547,0,0,0,.027.6l1.057,1.46ZM29.145,4.619a3.619,3.619,0,1,0,3.619,3.619A3.623,3.623,0,0,0,29.145,4.619Zm0,6.144a2.525,2.525,0,1,1,2.525-2.525A2.528,2.528,0,0,1,29.145,10.762Zm8.532,4.565,3.591,2.322a.547.547,0,0,1,.25.459v3.249a.547.547,0,0,1-1.094,0V18.406l-3.341-2.161a.547.547,0,1,1,.594-.918ZM29.143,21.9a.547.547,0,0,1-.544-.55l.014-2.72a.547.547,0,0,1,.547-.544h0a.547.547,0,0,1,.544.55l-.014,2.72a.547.547,0,0,1-.547.544Zm-12.37-.547V18.109a.547.547,0,0,1,.25-.459l3.591-2.322a.547.547,0,1,1,.594.918l-3.341,2.161v2.952a.547.547,0,1,1-1.094,0Z" transform="translate(-12.5 0)" fill="#fff"/>
</svg>
