<svg xmlns="http://www.w3.org/2000/svg" width="33.589" height="35" viewBox="0 0 33.589 35">
  <path id="talent" d="M39.44,31.6a19.775,19.775,0,0,0-3.308-.533,5.27,5.27,0,0,0,2.748-4.908c0-2.611-1.567-4.232-4.089-4.232S30.7,23.551,30.7,26.161a5.274,5.274,0,0,0,2.737,4.9,18.509,18.509,0,0,0-3.3.538c-2.414.62-3.743,1.941-3.743,3.718v7.115a.565.565,0,0,0,.565.565H42.622a.565.565,0,0,0,.565-.565V35.321c0-1.773-1.366-3.128-3.747-3.719Zm-7.61-5.441c0-2.7,1.855-3.1,2.96-3.1s2.96.4,2.96,3.1c0,2.243-1.328,4.068-2.96,4.068S31.83,28.4,31.83,26.161Zm10.228,15.71h-2.43V36.956a.565.565,0,1,0-1.129,0v4.915H31.081V36.956a.565.565,0,1,0-1.129,0v4.915h-2.43v-6.55c0-1.554,1.574-2.285,2.895-2.624a17.677,17.677,0,0,1,8.751,0c1.079.268,2.89.965,2.89,2.623v6.55ZM28.753,13.5,31.5,15.7l-.924,3.4a.839.839,0,0,0,1.269.922L34.79,18.1l2.947,1.929a.839.839,0,0,0,1.269-.922l-.924-3.4L40.827,13.5a.839.839,0,0,0-.485-1.492l-3.518-.171-1.25-3.292h0a.839.839,0,0,0-1.569,0l-1.25,3.293-3.518.171a.839.839,0,0,0-.485,1.492ZM33,12.952a.839.839,0,0,0,.744-.54L34.79,9.656l1.046,2.756a.839.839,0,0,0,.743.54l2.944.144-2.3,1.847a.839.839,0,0,0-.284.874l.773,2.845L35.25,17.046a.839.839,0,0,0-.919,0l-2.466,1.615.773-2.844a.839.839,0,0,0-.284-.874l-2.3-1.847Zm18.546,14.5a.76.76,0,0,0-.691-.528l-2.475-.121-.88-2.316a.765.765,0,0,0-1.431,0l-.879,2.316-2.475.121a.765.765,0,0,0-.442,1.361l1.931,1.552-.65,2.391a.764.764,0,0,0,1.158.841l2.073-1.357,2.073,1.357a.765.765,0,0,0,1.158-.841l-.65-2.391L51.3,28.29A.76.76,0,0,0,51.547,27.456Zm-5.1-2.564h0Zm2.028,4.219a.765.765,0,0,0-.259.8l.461,1.7-1.471-.963a.765.765,0,0,0-.838,0L44.9,31.6l.461-1.7a.765.765,0,0,0-.259-.8l-1.37-1.1,1.756-.086a.765.765,0,0,0,.678-.493l.624-1.644.624,1.643a.765.765,0,0,0,.678.493l1.756.086Zm-23.1.731,1.931-1.552a.765.765,0,0,0-.442-1.361l-2.475-.121-.879-2.316a.765.765,0,0,0-1.431,0L21.2,26.808l-2.475.121a.765.765,0,0,0-.442,1.361l1.931,1.552-.65,2.391a.764.764,0,0,0,1.158.841l2.073-1.357,2.073,1.357a.765.765,0,0,0,1.158-.841Zm-.893-.731a.765.765,0,0,0-.259.8l.461,1.7-1.471-.963a.765.765,0,0,0-.838,0L20.9,31.6l.461-1.7a.765.765,0,0,0-.259-.8l-1.37-1.1,1.756-.086a.765.765,0,0,0,.678-.493l.624-1.644.624,1.644a.766.766,0,0,0,.678.492l1.756.086ZM20.189,18.233l1.931,1.552-.65,2.391a.764.764,0,0,0,1.158.841L24.7,21.66l2.073,1.357a.765.765,0,0,0,1.158-.841l-.65-2.391,1.931-1.552a.765.765,0,0,0-.442-1.361L26.3,16.751l-.879-2.316h0a.765.765,0,0,0-1.431,0l-.879,2.316-2.475.121a.765.765,0,0,0-.442,1.361Zm3.21-.366a.766.766,0,0,0,.678-.493l.624-1.644.624,1.644a.765.765,0,0,0,.678.492l1.756.086-1.37,1.1a.765.765,0,0,0-.259.8l.461,1.7-1.471-.963a.765.765,0,0,0-.838,0l-1.471.963.461-1.7a.765.765,0,0,0-.259-.8l-1.37-1.1ZM40.119,17.4a.76.76,0,0,0,.248.833L42.3,19.785l-.65,2.391a.764.764,0,0,0,1.158.841L44.88,21.66l2.073,1.357a.765.765,0,0,0,1.158-.841l-.65-2.391,1.931-1.552a.765.765,0,0,0-.442-1.361l-2.475-.121L45.6,14.435h0a.765.765,0,0,0-1.431,0l-.879,2.316-2.475.121a.759.759,0,0,0-.691.528Zm3.458.468a.765.765,0,0,0,.678-.493l.624-1.644.624,1.644a.765.765,0,0,0,.678.493l1.756.086-1.37,1.1a.765.765,0,0,0-.259.8l.461,1.7L45.3,20.585a.765.765,0,0,0-.838,0l-1.471.963.461-1.7a.765.765,0,0,0-.259-.8l-1.37-1.1Z" transform="translate(-17.996 -8)" fill="#fff"/>
</svg>
