<svg xmlns="http://www.w3.org/2000/svg" width="37.262" height="35" viewBox="0 0 37.262 35">
  <path id="payroll" d="M38.551,48.846,34.082,27.54a.407.407,0,0,0-.483-.315l-6.1,1.28V21.242a1.8,1.8,0,0,0-1.8-1.8h-.936V18.5a1.8,1.8,0,0,0-1.8-1.8H3.1a1.8,1.8,0,0,0-1.8,1.8V47.164a1.8,1.8,0,0,0,1.8,1.8h.929V49.9a1.8,1.8,0,0,0,1.8,1.8H25.7a1.8,1.8,0,0,0,.827-.2.408.408,0,0,0,.439.2l11.271-2.362A.4.4,0,0,0,38.551,48.846ZM4.335,20.233a1.84,1.84,0,0,0-.307,1.009V48.151H3.1a.98.98,0,0,1-.98-.98V18.5a.98.98,0,0,1,.98-.98H22.965a.98.98,0,0,1,.98.98v.936H5.828a1.8,1.8,0,0,0-1.492.8ZM25.7,50.887H5.827a.98.98,0,0,1-.98-.98V21.242a.985.985,0,0,1,.98-.98H25.7a.98.98,0,0,1,.98.98v7.431l-4.14.87-.219.044a.4.4,0,0,0-.315.483l.183.863-6.415,4.805a.417.417,0,0,0-.088.578L26.278,50.47l.037.19a.977.977,0,0,1-.614.227Zm-6.583-15.44a1.5,1.5,0,0,1-.3,2.1.41.41,0,0,0-.08.578l6.89,9.209.256,1.236L16.594,36.156l5.778-4.323.124.578-3.3,2.458A.424.424,0,0,0,19.117,35.446Zm.5,2.48a2.325,2.325,0,0,0,.373-2.618L22.679,33.3,25.225,45.43ZM27.2,50.806c-.856-4.1-3.43-16.333-4.3-20.5,2.487-.519,7.951-1.668,10.474-2.2l4.293,20.509ZM32.941,30.7a1.506,1.506,0,0,1-1.777-1.163.4.4,0,0,0-.483-.315L25.8,30.246a.4.4,0,0,0-.315.483,1.5,1.5,0,0,1-1.163,1.777.4.4,0,0,0-.315.483L27.141,47.9a.4.4,0,0,0,.483.315,1.5,1.5,0,0,1,1.77,1.156.418.418,0,0,0,.483.322l4.886-1.024a.407.407,0,0,0,.315-.483,1.51,1.51,0,0,1,1.156-1.777.4.4,0,0,0,.315-.483l-3.13-14.914a.39.39,0,0,0-.475-.315ZM35.677,45.73a2.331,2.331,0,0,0-1.448,2.216l-4.154.87a2.324,2.324,0,0,0-2.216-1.448L24.881,33.186a2.331,2.331,0,0,0,1.448-2.216l4.147-.87a2.334,2.334,0,0,0,2.216,1.448Zm-5.99-9.135a2.928,2.928,0,1,0,3.05,4.469A2.934,2.934,0,0,0,29.687,36.595Zm1.031,4.93a2.107,2.107,0,1,1,.724-3.825A2.122,2.122,0,0,1,30.718,41.524ZM6.742,28.4l.8.08c.029.08.066.161.1.249l-.512.622a.68.68,0,0,0,.051.892l.965.965a.665.665,0,0,0,.9.051l.622-.5a2.525,2.525,0,0,0,.249.1l.08.8a.667.667,0,0,0,.666.6h1.36a.667.667,0,0,0,.666-.6l.08-.8a2.524,2.524,0,0,0,.249-.1l.622.5a.665.665,0,0,0,.9-.044l.973-.973a.672.672,0,0,0,.044-.892l-.5-.622c.037-.08.073-.168.1-.249l.79-.08a.668.668,0,0,0,.607-.666V26.362a.667.667,0,0,0-.6-.666l-.8-.08c-.029-.08-.066-.168-.1-.249l.5-.614a.673.673,0,0,0-.044-.9l-.965-.965a.656.656,0,0,0-.892-.044l-.622.5a2.526,2.526,0,0,0-.249-.1l-.1-.8a.666.666,0,0,0-.666-.592h-1.36a.667.667,0,0,0-.666.6l-.08.8c-.08.029-.168.066-.249.1l-.614-.5a.672.672,0,0,0-.9.044l-.965.965a.663.663,0,0,0-.044.892l.5.622a2.527,2.527,0,0,0-.1.249l-.8.08a.667.667,0,0,0-.6.666v1.368a.658.658,0,0,0,.592.651ZM6.961,26.5l.922-.1a.4.4,0,0,0,.351-.293c.051-.358.475-.717.2-1.061l-.585-.717.775-.768.717.585c.344.263.7-.154,1.061-.2A.4.4,0,0,0,10.7,23.6l.1-.922h1.09l.1.922a.4.4,0,0,0,.293.351c.358.051.709.468,1.061.2l.724-.585.768.768-.585.717c-.263.351.154.7.212,1.061a.4.4,0,0,0,.351.285l.922.1v1.09l-.922.1c-.358.029-.373.439-.5.695-.11.2-.234.453-.059.658l.585.717-.768.768-.724-.585c-.351-.263-.695.154-1.061.212a.41.41,0,0,0-.285.351l-.1.929h-1.09l-.1-.922a.418.418,0,0,0-.285-.351c-.366-.059-.717-.475-1.061-.212l-.717.585-.775-.768.585-.717c.176-.2.059-.453-.051-.651-.146-.278-.139-.666-.5-.709l-.922-.1V26.5Zm4.374,2.955a2.41,2.41,0,0,0,0-4.82A2.41,2.41,0,0,0,11.335,29.456Zm0-3.994a1.591,1.591,0,1,1-1.587,1.594A1.6,1.6,0,0,1,11.335,25.462Zm.336,10.159H6.552a.41.41,0,0,1,0-.819h5.12A.41.41,0,0,1,11.672,35.622Zm0,2.245a.41.41,0,0,1,0,.819H6.552a.41.41,0,0,1,0-.819Zm-5.53,3.482a.409.409,0,0,1,.41-.41H16.784a.41.41,0,1,1,0,.819H6.552A.409.409,0,0,1,6.142,41.349Zm13.334,3.065a.409.409,0,0,1-.41.41H6.552a.41.41,0,0,1,0-.819H19.066A.409.409,0,0,1,19.476,44.414Zm-.41,3.474H6.552a.41.41,0,0,1,0-.819H19.066A.41.41,0,0,1,19.066,47.888Z" transform="translate(-1.3 -16.7)" fill="#fff"/>
</svg>
