<svg xmlns="http://www.w3.org/2000/svg" width="80" height="52.5" viewBox="0 0 80 52.5">
  <g id="Layer_x0020_1" transform="translate(0 -88)">
    <g id="_528069736" transform="translate(0 88)">
      <g id="Group_217" data-name="Group 217" transform="translate(7.5 7.5)">
        <path id="Path_598" data-name="Path 598" d="M49.25,155.438A1.114,1.114,0,0,1,48,154.344v-11.25A6.136,6.136,0,0,1,54.25,137H72.844a1.208,1.208,0,0,1,1.25,1.094,1.344,1.344,0,0,1-1.25,1.25H54.25a3.868,3.868,0,0,0-3.906,3.906v11.094A1.068,1.068,0,0,1,49.25,155.438Z" transform="translate(-48 -136.844)" fill="#29485a" fill-rule="evenodd"/>
        <path id="Path_599" data-name="Path 599" d="M321.844,154.594a1.068,1.068,0,0,1-1.094-1.094V142.25a3.868,3.868,0,0,0-3.906-3.906h-18.75A1.068,1.068,0,0,1,297,137.25a1.208,1.208,0,0,1,1.094-1.25h18.75a6.136,6.136,0,0,1,6.094,6.25v11.094C323.094,154.125,322.625,154.594,321.844,154.594Z" transform="translate(-258.094 -136)" fill="#29485a" fill-rule="evenodd"/>
        <path id="Path_600" data-name="Path 600" d="M250.094,207.188A1.068,1.068,0,0,1,249,206.094v-20a1.094,1.094,0,0,1,2.188,0v20A1.068,1.068,0,0,1,250.094,207.188Z" transform="translate(-217.594 -177.344)" fill="#29485a" stroke="#29485a" stroke-width="0.9" fill-rule="evenodd"/>
        <path id="Path_601" data-name="Path 601" d="M113.5,362.344H97.25A1.208,1.208,0,0,1,96,361.25,1.344,1.344,0,0,1,97.25,360H113.5a1.208,1.208,0,0,1,1.094,1.25A1.068,1.068,0,0,1,113.5,362.344Z" transform="translate(-88.5 -325)" fill="#29485a" fill-rule="evenodd"/>
        <path id="Path_602" data-name="Path 602" d="M314.344,363.188h-16.25A1.068,1.068,0,0,1,297,362.094,1.174,1.174,0,0,1,298.094,361h16.25a1.094,1.094,0,0,1,0,2.188Z" transform="translate(-258.094 -325.844)" fill="#29485a" fill-rule="evenodd"/>
      </g>
      <path id="Path_603" data-name="Path 603" d="M213.813,105.5h-8.437A4.5,4.5,0,0,1,201,100.969V92.531A4.5,4.5,0,0,1,205.375,88h8.438a4.638,4.638,0,0,1,4.531,4.531v8.438A4.535,4.535,0,0,1,213.813,105.5Z" transform="translate(-169.594 -88)" fill="#ff4141" fill-rule="evenodd"/>
      <path id="Path_604" data-name="Path 604" d="M213.813,329.5h-8.437A4.5,4.5,0,0,1,201,324.969v-8.437A4.5,4.5,0,0,1,205.375,312h8.438a4.535,4.535,0,0,1,4.531,4.531v8.438A4.751,4.751,0,0,1,213.813,329.5Z" transform="translate(-169.594 -277)" fill="#ffd300" fill-rule="evenodd"/>
      <path id="Path_605" data-name="Path 605" d="M12.813,329.5H4.531A4.638,4.638,0,0,1,0,324.969v-8.437A4.535,4.535,0,0,1,4.531,312h8.281a4.535,4.535,0,0,1,4.531,4.531v8.438A4.535,4.535,0,0,1,12.813,329.5Z" transform="translate(0 -277)" fill="#55acee" fill-rule="evenodd"/>
      <path id="Path_606" data-name="Path 606" d="M413.812,329.5h-8.281A4.638,4.638,0,0,1,401,324.969v-8.437A4.534,4.534,0,0,1,405.531,312h8.281a4.534,4.534,0,0,1,4.531,4.531v8.438A4.534,4.534,0,0,1,413.812,329.5Z" transform="translate(-338.344 -277)" fill="#ff4141" fill-rule="evenodd"/>
      <path id="Path_607" data-name="Path 607" d="M11.07,204.8c-.312,0-.625,0-.781-.313L3.1,197.453a1.226,1.226,0,0,1,0-1.719,1.693,1.693,0,0,1,1.719,0l6.25,6.25,6.25-6.25a1.419,1.419,0,0,1,1.563,0,1.226,1.226,0,0,1,0,1.719l-7.031,7.031A.86.86,0,0,1,11.07,204.8Z" transform="translate(-2.32 -178.703)" fill="#29485a" fill-rule="evenodd"/>
      <path id="Path_608" data-name="Path 608" d="M411.914,204.8a.86.86,0,0,1-.781-.313l-7.031-7.031a1.226,1.226,0,0,1,0-1.719,1.419,1.419,0,0,1,1.563,0l6.25,6.25,6.25-6.25a1.693,1.693,0,0,1,1.719,0,1.226,1.226,0,0,1,0,1.719l-7.031,7.031C412.7,204.8,412.227,204.8,411.914,204.8Z" transform="translate(-340.664 -178.703)" fill="#29485a" fill-rule="evenodd"/>
      <path id="Path_609" data-name="Path 609" d="M418.344,316.531A4.638,4.638,0,0,0,413.812,312h-8.281A4.558,4.558,0,0,0,401,315.906a6.645,6.645,0,0,1,1.719-.312h8.438a4.5,4.5,0,0,1,4.375,4.531v9.063a4.589,4.589,0,0,0,2.812-4.219v-8.437Z" transform="translate(-338.344 -277)" fill="#e63535" fill-rule="evenodd"/>
      <path id="Path_610" data-name="Path 610" d="M218.344,92.531A4.638,4.638,0,0,0,213.813,88h-8.437A4.521,4.521,0,0,0,201,91.906a5.617,5.617,0,0,1,1.719-.312H211a4.638,4.638,0,0,1,4.531,4.531v8.906a4.45,4.45,0,0,0,2.813-4.062V92.531Z" transform="translate(-169.594 -88)" fill="#e63535" fill-rule="evenodd"/>
      <path id="Path_611" data-name="Path 611" d="M218.344,316.531A4.638,4.638,0,0,0,213.813,312h-8.437A4.521,4.521,0,0,0,201,315.906a5.617,5.617,0,0,1,1.719-.312H211a4.638,4.638,0,0,1,4.531,4.531v9.063a4.851,4.851,0,0,0,2.813-4.219v-8.437Z" transform="translate(-169.594 -277)" fill="#ffab00" fill-rule="evenodd"/>
      <path id="Path_612" data-name="Path 612" d="M17.344,316.531A4.638,4.638,0,0,0,12.813,312H4.531A4.558,4.558,0,0,0,0,315.906a5.617,5.617,0,0,1,1.719-.312h8.438a4.612,4.612,0,0,1,4.375,4.531v9.063a4.589,4.589,0,0,0,2.812-4.219v-8.437Z" transform="translate(0 -277)" fill="#4f95ca" fill-rule="evenodd"/>
    </g>
  </g>
</svg>
