<svg id="chat" xmlns="http://www.w3.org/2000/svg" width="38" height="38" viewBox="0 0 38 38">
  <g id="Group_262" data-name="Group 262">
    <g id="Group_261" data-name="Group 261">
      <path id="Path_741" data-name="Path 741" d="M32.062,0H5.937A5.937,5.937,0,0,0,0,5.937v19a5.937,5.937,0,0,0,5.937,5.937H29.2l6.769,6.781A1.192,1.192,0,0,0,38,36.812V5.937A5.937,5.937,0,0,0,32.062,0Zm3.562,33.951-5.094-5.106a1.187,1.187,0,0,0-.843-.344H5.937a3.562,3.562,0,0,1-3.562-3.562v-19A3.562,3.562,0,0,1,5.937,2.375H32.062a3.562,3.562,0,0,1,3.562,3.562Z" fill="#b1b1b1"/>
      <circle id="Ellipse_42" data-name="Ellipse 42" cx="2.375" cy="2.375" r="2.375" transform="translate(16.625 13.062)" fill="#b1b1b1"/>
      <circle id="Ellipse_43" data-name="Ellipse 43" cx="2.375" cy="2.375" r="2.375" transform="translate(24.937 13.062)" fill="#b1b1b1"/>
      <circle id="Ellipse_44" data-name="Ellipse 44" cx="2.375" cy="2.375" r="2.375" transform="translate(8.312 13.062)" fill="#b1b1b1"/>
    </g>
  </g>
</svg>
