<svg xmlns="http://www.w3.org/2000/svg" width="30" height="30" viewBox="0 0 30 30">
  <g id="Layer_1" transform="translate(-1 -1)">
    <g id="Group_225" data-name="Group 225">
      <g id="Group_224" data-name="Group 224">
        <g id="Group_222" data-name="Group 222">
          <g id="Group_221" data-name="Group 221">
            <path id="Path_645" data-name="Path 645" d="M16,1A15,15,0,1,0,31,16,15.005,15.005,0,0,0,16,1Zm7.8,8.18-3.77,9.14a3.058,3.058,0,0,1-1.71,1.71L9.18,23.8a.751.751,0,0,1-.98-.98l3.77-9.14a3.058,3.058,0,0,1,1.71-1.71L22.82,8.2a.751.751,0,0,1,.98.98Z" fill="#fff"/>
          </g>
        </g>
        <g id="Group_223" data-name="Group 223">
          <circle id="Ellipse_31" data-name="Ellipse 31" cx="2" cy="2" r="2" transform="translate(14 14)" fill="#fff"/>
        </g>
      </g>
    </g>
  </g>
</svg>
