<svg xmlns="http://www.w3.org/2000/svg" width="30" height="30" viewBox="0 0 30 30">
  <g id="Group_278" data-name="Group 278" transform="translate(-222 -187)">
    <circle id="Ellipse_51" data-name="Ellipse 51" cx="15" cy="15" r="15" transform="translate(222 187)" fill="#002c53"/>
    <g id="pencil" transform="translate(230.493 195.254)">
      <path id="Path_742" data-name="Path 742" d="M8.036,82.473.876,89.634a.285.285,0,0,0-.074.131L.008,92.95a.282.282,0,0,0,.342.342L3.535,92.5a.282.282,0,0,0,.131-.074l7.161-7.16Zm0,0" transform="translate(0 -80.053)" fill="#fff"/>
      <path id="Path_743" data-name="Path 743" d="M338.095,1.443l-.8-.8a1.443,1.443,0,0,0-1.993,0l-.976.976,2.79,2.79.976-.976a1.41,1.41,0,0,0,0-1.993Zm0,0" transform="translate(-325.494 0)" fill="#fff"/>
    </g>
  </g>
</svg>
