<svg xmlns="http://www.w3.org/2000/svg" width="24.862" height="24" viewBox="0 0 24.862 24">
  <g id="favourite" transform="translate(-0.001 -8.874)">
    <g id="Page-1_80_" transform="translate(0.001 8.874)">
      <g id="_x30_81---Favourite" transform="translate(0 0)">
        <path id="Shape_484_" d="M23.111,16.491l-5.049-.738a2.046,2.046,0,0,1-1.539-1.126l-2.258-4.606a2.039,2.039,0,0,0-3.667,0L8.34,14.627A2.046,2.046,0,0,1,6.8,15.753l-5.049.738A2.062,2.062,0,0,0,.619,20l3.654,3.585a2.068,2.068,0,0,1,.588,1.822L4,30.47a2.047,2.047,0,0,0,2.967,2.17l4.516-2.39a2.033,2.033,0,0,1,1.9,0L17.9,32.64a2.047,2.047,0,0,0,2.967-2.17L20,25.408a2.068,2.068,0,0,1,.588-1.822L24.244,20a2.062,2.062,0,0,0-1.133-3.511ZM12.525,10.966l-1.8,3.669a.429.429,0,0,1-.386.24.418.418,0,0,1-.188-.043.429.429,0,0,1-.2-.573l1.8-3.671a.43.43,0,0,1,.772.378Z" transform="translate(-0.001 -8.874)" fill="#fff"/>
      </g>
    </g>
  </g>
</svg>
