<svg xmlns="http://www.w3.org/2000/svg" width="38.621" height="35" viewBox="0 0 38.621 35">
  <g id="teamwork" transform="translate(0 -3)">
    <path id="Path_586" data-name="Path 586" d="M6.017,37.241A3.021,3.021,0,0,1,3,34.224V33.017a3.017,3.017,0,0,1,6.034,0v1.207a3.021,3.021,0,0,1-3.017,3.017Zm0-6.034a1.81,1.81,0,0,0-1.81,1.81v1.207a1.81,1.81,0,0,0,3.621,0V33.017A1.81,1.81,0,0,0,6.017,31.207Z" transform="translate(-1.19 -10.707)" fill="#538fe1"/>
    <path id="Path_587" data-name="Path 587" d="M9.052,46.828a.6.6,0,0,1-.6-.6v-1.81a1.207,1.207,0,0,0-1.207-1.207H2.414a1.207,1.207,0,0,0-1.207,1.207v1.81a.6.6,0,0,1-1.207,0v-1.81A2.414,2.414,0,0,1,2.414,42H7.241a2.414,2.414,0,0,1,2.414,2.414v1.81A.6.6,0,0,1,9.052,46.828Z" transform="translate(0 -15.466)" fill="#538fe1"/>
    <path id="Path_588" data-name="Path 588" d="M54.017,37.241A3.021,3.021,0,0,1,51,34.224V33.017a3.017,3.017,0,0,1,6.034,0v1.207A3.021,3.021,0,0,1,54.017,37.241Zm0-6.034a1.81,1.81,0,0,0-1.81,1.81v1.207a1.81,1.81,0,0,0,3.621,0V33.017A1.81,1.81,0,0,0,54.017,31.207Z" transform="translate(-20.224 -10.707)" fill="#538fe1"/>
    <path id="Path_589" data-name="Path 589" d="M57.052,46.828a.6.6,0,0,1-.6-.6v-1.81a1.207,1.207,0,0,0-1.207-1.207H50.414a1.207,1.207,0,0,0-1.207,1.207v1.81a.6.6,0,0,1-1.207,0v-1.81A2.414,2.414,0,0,1,50.414,42h4.828a2.414,2.414,0,0,1,2.414,2.414v1.81A.6.6,0,0,1,57.052,46.828Z" transform="translate(-19.035 -15.466)" fill="#538fe1"/>
    <path id="Path_590" data-name="Path 590" d="M30.017,10.241A3.021,3.021,0,0,1,27,7.224V6.017a3.017,3.017,0,1,1,6.034,0V7.224A3.021,3.021,0,0,1,30.017,10.241Zm0-6.034a1.81,1.81,0,0,0-1.81,1.81V7.224a1.81,1.81,0,1,0,3.621,0V6.017A1.81,1.81,0,0,0,30.017,4.207Z" transform="translate(-10.707)" fill="#538fe1"/>
    <path id="Path_591" data-name="Path 591" d="M33.052,19.828a.6.6,0,0,1-.6-.6v-1.81a1.207,1.207,0,0,0-1.207-1.207H26.414a1.207,1.207,0,0,0-1.207,1.207v1.81a.6.6,0,0,1-1.207,0v-1.81A2.414,2.414,0,0,1,26.414,15h4.828a2.414,2.414,0,0,1,2.414,2.414v1.81A.6.6,0,0,1,33.052,19.828Z" transform="translate(-9.517 -4.759)" fill="#538fe1"/>
    <path id="Path_592" data-name="Path 592" d="M24.862,57.407a14.979,14.979,0,0,1-10.686-4.438.6.6,0,1,1,.855-.852,13.879,13.879,0,0,0,19.663,0,.6.6,0,1,1,.855.852A14.984,14.984,0,0,1,24.862,57.407Z" transform="translate(-5.552 -19.407)" fill="#538fe1"/>
    <path id="Path_593" data-name="Path 593" d="M48.424,22.4a.6.6,0,0,1-.569-.4,14.012,14.012,0,0,0-8.463-8.463.6.6,0,1,1,.4-1.137,15.226,15.226,0,0,1,9.2,9.2.6.6,0,0,1-.569.8Z" transform="translate(-15.455 -3.71)" fill="#538fe1"/>
    <path id="Path_594" data-name="Path 594" d="M8.969,22.4a.6.6,0,0,1-.569-.8,15.226,15.226,0,0,1,9.2-9.2.6.6,0,1,1,.4,1.137A14.012,14.012,0,0,0,9.538,22,.6.6,0,0,1,8.969,22.4Z" transform="translate(-3.318 -3.71)" fill="#538fe1"/>
    <path id="Path_595" data-name="Path 595" d="M27.548,40.69H26.141a1.235,1.235,0,0,1-1.223-1.08l-.1-.821c-.25-.1-.495-.2-.728-.317l-.664.52a1.236,1.236,0,0,1-1.629-.1l-1-1a1.235,1.235,0,0,1-.1-1.629l.508-.654c-.1-.246-.206-.492-.29-.74l-.836-.1A1.235,1.235,0,0,1,19,33.548V32.141a1.235,1.235,0,0,1,1.08-1.223l.821-.1c.1-.246.2-.491.316-.728l-.518-.664a1.236,1.236,0,0,1,.1-1.629l1-1a1.236,1.236,0,0,1,1.629-.1l.653.508c.241-.1.488-.205.738-.29l.1-.836A1.235,1.235,0,0,1,26.141,25h1.407a1.235,1.235,0,0,1,1.223,1.08l.1.821c.25.1.495.2.728.317l.664-.52a1.236,1.236,0,0,1,1.629.1l1,1a1.235,1.235,0,0,1,.1,1.629l-.508.654c.106.247.207.492.29.74l.836.1a1.235,1.235,0,0,1,1.078,1.223v1.407a1.235,1.235,0,0,1-1.08,1.223l-.821.1c-.1.246-.2.492-.316.728l.518.664a1.236,1.236,0,0,1-.1,1.629l-1,1a1.236,1.236,0,0,1-1.629.1l-.653-.508c-.241.1-.488.205-.738.29l-.1.836A1.235,1.235,0,0,1,27.548,40.69ZM24.1,37.269a1.185,1.185,0,0,1,.52.121,5,5,0,0,0,.588.241,1.224,1.224,0,0,1,.807,1.008l.1.821,1.433.024.129-.845a1.223,1.223,0,0,1,.807-1.007,5.034,5.034,0,0,0,.587-.241,1.226,1.226,0,0,1,1.282.142l.653.508,1.028-1-.506-.688a1.226,1.226,0,0,1-.142-1.282,5.152,5.152,0,0,0,.241-.587,1.227,1.227,0,0,1,1.01-.808l.845-.129V32.141l-.845-.129a1.228,1.228,0,0,1-1.008-.807,4.88,4.88,0,0,0-.241-.589,1.224,1.224,0,0,1,.142-1.28l.508-.654-1-1.028-.687.506a1.224,1.224,0,0,1-1.282.143,5,5,0,0,0-.588-.241,1.224,1.224,0,0,1-.807-1.008l-.1-.821-1.433-.027-.129.845a1.223,1.223,0,0,1-.807,1.007,5.033,5.033,0,0,0-.587.241,1.226,1.226,0,0,1-1.282-.142l-.655-.507-1.026,1,.506.688a1.225,1.225,0,0,1,.142,1.282,4.941,4.941,0,0,0-.241.587,1.227,1.227,0,0,1-1.01.808l-.822.1-.022,1.433.845.129a1.228,1.228,0,0,1,1.008.807,5.081,5.081,0,0,0,.241.588,1.226,1.226,0,0,1-.142,1.281l-.507.656,1,1.026.687-.506a1.244,1.244,0,0,1,.762-.26Z" transform="translate(-7.535 -8.724)" fill="#538fe1"/>
    <path id="Path_596" data-name="Path 596" d="M29.621,39.241a3.621,3.621,0,1,1,3.621-3.621A3.621,3.621,0,0,1,29.621,39.241Zm0-6.034a2.414,2.414,0,1,0,2.414,2.414A2.414,2.414,0,0,0,29.621,33.207Z" transform="translate(-10.31 -11.5)" fill="#538fe1"/>
  </g>
</svg>
