<svg xmlns="http://www.w3.org/2000/svg" width="35.434" height="35" viewBox="0 0 35.434 35">
  <path id="trust" d="M8.327,33.771l2.519,1.185a1.634,1.634,0,0,0,.7.156,1.651,1.651,0,0,0,1.2-.524l.976.7a4.15,4.15,0,0,1,.6,1.4,7.047,7.047,0,0,0,.605,1.547l-.312.534a1.988,1.988,0,0,0,2.24,2.923,1.988,1.988,0,0,0,1.922,1.5,2.011,2.011,0,0,0,.51-.066l.017,0a1.982,1.982,0,0,0,1.923,1.5,2.008,2.008,0,0,0,1.209-.405,1.976,1.976,0,0,0,1.724,1.008,2.012,2.012,0,0,0,1.265-.449l1.609.955a2.131,2.131,0,0,0,1.091.3,2.177,2.177,0,0,0,.54-.068,2.146,2.146,0,0,0,1.619-2.058,2.147,2.147,0,0,0,2.74-2.412,2.146,2.146,0,0,0,1.969-2.592,2.192,2.192,0,0,0,.279-.052,2.146,2.146,0,0,0,1.551-2.616,2.2,2.2,0,0,0-.12-.346,6.759,6.759,0,0,0,2.244-1.082,1.635,1.635,0,0,0,1.644.145L43.1,33.771a.572.572,0,1,0-.486-1.034L40.1,33.921a.5.5,0,0,1-.665-.24l-3.9-8.292a.5.5,0,0,1,.238-.665l2.519-1.185A.572.572,0,1,0,37.8,22.5l-2.52,1.185a1.645,1.645,0,0,0-.941,1.5,8.662,8.662,0,0,1-2.1.524,13.7,13.7,0,0,1-2.745-.191c-1.882-.244-3.827-.5-5.13.271l-.715.421a4.455,4.455,0,0,0-3.522-.585,8.92,8.92,0,0,1-2.515.048c-.187-.028-.378-.066-.575-.115a1.647,1.647,0,0,0-.9-1.874L13.626,22.5a.572.572,0,1,0-.486,1.034l2.518,1.184a.5.5,0,0,1,.239.665L12,33.682a.5.5,0,0,1-.665.24L8.813,32.737a.571.571,0,1,0-.486,1.034ZM15.9,40.506a.85.85,0,0,1-.3-1.16l.483-.825c.008-.013.017-.027.024-.041l.923-1.577a.847.847,0,1,1,1.464.854L17.062,40.2a.851.851,0,0,1-1.161.3Zm2.45,1.432a.848.848,0,0,1-.3-1.158l1.43-2.444a.847.847,0,1,1,1.461.857l-1.43,2.443a.849.849,0,0,1-1.158.3ZM20.8,43.371a.85.85,0,0,1-.3-1.16l1.43-2.442a.847.847,0,0,1,1.464.854l-.716,1.224-.229.389c-.011.018-.021.037-.031.055l-.453.775a.852.852,0,0,1-1.161.3Zm2.935.6a.846.846,0,0,1-.391-.519.836.836,0,0,1,.071-.613l.243-.415.72-1.223a.846.846,0,0,1,1.551.216.833.833,0,0,1-.088.638l-.947,1.611a.854.854,0,0,1-1.16.306Zm1.214-17.2c.964-.568,2.791-.332,4.4-.123a14.363,14.363,0,0,0,3,.2,9.628,9.628,0,0,0,2.337-.571l3.578,7.608a6.087,6.087,0,0,1-2.417,1.043l-.018-.011-3.361-2a.573.573,0,0,0-.334-.079c-2.382.176-4.9-.057-7.156-2.936a.572.572,0,0,0-.646-.184l-1.364.5a.572.572,0,0,0-.263.2l-.926,1.257a1.5,1.5,0,0,1-1.893.6.7.7,0,0,1-.275-1.037l1.579-2.255,2.7-1.589h0Zm-4.681-.014a4.1,4.1,0,0,1,2.262.111L20.5,28.068a.573.573,0,0,0-.179.165l-1.649,2.355a1.843,1.843,0,0,0,.728,2.731,2.646,2.646,0,0,0,3.291-.955l.827-1.123.821-.3A8.457,8.457,0,0,0,32.04,34l3.208,1.9a1.01,1.01,0,1,1-1.031,1.736l-2.6-1.539a.572.572,0,1,0-.583.983l2.339,1.387.022.014a1.01,1.01,0,0,1-1.031,1.736l-2.582-1.532a.571.571,0,1,0-.584.983l2.2,1.308.007,0a1.01,1.01,0,0,1-1.031,1.736l-1.154-.685h0l-1.061-.63a.572.572,0,1,0-.583.983l1.062.63A1.025,1.025,0,0,1,29,44.4a1.014,1.014,0,0,1-1.383.354l-1.5-.893.719-1.222a1.987,1.987,0,0,0-2.241-2.924l-.005-.022a1.984,1.984,0,0,0-2.445-1.415l0-.019a1.984,1.984,0,0,0-2.443-1.415,1.99,1.99,0,0,0-3.647-.517l-.413.7c-.078-.218-.148-.447-.217-.674a4.646,4.646,0,0,0-.893-1.892l-.037-.039-1.175-.844,3.273-6.959a7.439,7.439,0,0,0,.869.185,9.984,9.984,0,0,0,2.819-.044ZM25.5,23.673a.572.572,0,0,0,.432,0c2.646-1.081,5.472-4.367,5.472-10.348a.572.572,0,0,0-.565-.572,7.409,7.409,0,0,1-4.764-1.588.572.572,0,0,0-.718,0,7.409,7.409,0,0,1-4.764,1.588.572.572,0,0,0-.565.572C20.026,19.306,22.853,22.592,25.5,23.673Zm.216-11.345a8.541,8.541,0,0,0,4.537,1.547c-.155,4.9-2.379,7.65-4.537,8.645-2.157-1-4.382-3.745-4.537-8.645a8.541,8.541,0,0,0,4.537-1.547Zm-.828,6.629-.968-.931a.572.572,0,1,1,.793-.824l.545.525,1.435-1.573a.572.572,0,1,1,.845.77L25.706,18.93a.572.572,0,0,1-.4.186h-.019A.572.572,0,0,1,24.887,18.957Z" transform="translate(-7.998 -11.038)" fill="#747272"/>
</svg>
