<svg xmlns="http://www.w3.org/2000/svg" width="30.484" height="35" viewBox="0 0 30.484 35">
  <path id="racing-flag" d="M34.145,1.75C30.419.169,26.694.96,23.081,1.694c-3.444.734-6.774,1.411-10.048.169V1.694a1.694,1.694,0,0,0-3.387,0V33.871H4V35H18.677V33.871H13.032V16.6a12.27,12.27,0,0,0,3.952.621,34.056,34.056,0,0,0,6.323-.847c3.613-.734,7-1.468,10.387-.056l.79.339V1.863ZM10.774,33.871V1.694a.565.565,0,0,1,1.129,0V33.871ZM33.355,15.016c-3.5-1.129-6.944-.452-10.274.282-3.444.734-6.774,1.411-10.048.169V3.048c3.5,1.129,6.944.452,10.274-.282,3.444-.734,6.774-1.411,10.048-.169Z" transform="translate(-4)" fill="#747272"/>
</svg>
