<svg xmlns="http://www.w3.org/2000/svg" width="30.476" height="20" viewBox="0 0 30.476 20">
  <g id="Layer_x0020_1" transform="translate(0 -88)">
    <g id="_528069736" transform="translate(0 88)">
      <g id="Group_217" data-name="Group 217" transform="translate(2.857 2.857)">
        <path id="Path_598" data-name="Path 598" d="M48.476,144.024a.425.425,0,0,1-.476-.417v-4.286A2.338,2.338,0,0,1,50.381,137h7.083a.46.46,0,0,1,.476.417.512.512,0,0,1-.476.476H50.381a1.474,1.474,0,0,0-1.488,1.488v4.226A.407.407,0,0,1,48.476,144.024Z" transform="translate(-48 -136.94)" fill="#29485a" fill-rule="evenodd"/>
        <path id="Path_599" data-name="Path 599" d="M306.464,143.083a.407.407,0,0,1-.417-.417v-4.286a1.474,1.474,0,0,0-1.488-1.488h-7.143a.407.407,0,0,1-.417-.417.46.46,0,0,1,.417-.476h7.143a2.338,2.338,0,0,1,2.321,2.381v4.226C306.94,142.9,306.762,143.083,306.464,143.083Z" transform="translate(-282.179 -136)" fill="#29485a" fill-rule="evenodd"/>
        <path id="Path_600" data-name="Path 600" d="M249.417,193.452a.407.407,0,0,1-.417-.417v-7.619a.417.417,0,1,1,.833,0v7.619A.407.407,0,0,1,249.417,193.452Z" transform="translate(-237.036 -182.083)" fill="#29485a" stroke="#29485a" stroke-width="0.9" fill-rule="evenodd"/>
        <path id="Path_601" data-name="Path 601" d="M102.667,360.893h-6.19a.46.46,0,0,1-.476-.417.512.512,0,0,1,.476-.476h6.19a.46.46,0,0,1,.417.476A.407.407,0,0,1,102.667,360.893Z" transform="translate(-93.143 -346.667)" fill="#29485a" fill-rule="evenodd"/>
        <path id="Path_602" data-name="Path 602" d="M303.607,361.833h-6.19a.407.407,0,0,1-.417-.417.447.447,0,0,1,.417-.417h6.19a.417.417,0,0,1,0,.833Z" transform="translate(-282.179 -347.607)" fill="#29485a" fill-rule="evenodd"/>
      </g>
      <path id="Path_603" data-name="Path 603" d="M205.881,94.667h-3.214A1.716,1.716,0,0,1,201,92.94V89.726A1.716,1.716,0,0,1,202.667,88h3.214a1.767,1.767,0,0,1,1.726,1.726V92.94A1.727,1.727,0,0,1,205.881,94.667Z" transform="translate(-189.036 -88)" fill="#ff4141" fill-rule="evenodd"/>
      <path id="Path_604" data-name="Path 604" d="M205.881,318.667h-3.214A1.716,1.716,0,0,1,201,316.94v-3.214A1.716,1.716,0,0,1,202.667,312h3.214a1.727,1.727,0,0,1,1.726,1.726v3.214A1.81,1.81,0,0,1,205.881,318.667Z" transform="translate(-189.036 -298.667)" fill="#ffd300" fill-rule="evenodd"/>
      <path id="Path_605" data-name="Path 605" d="M4.881,318.667H1.726A1.767,1.767,0,0,1,0,316.94v-3.214A1.727,1.727,0,0,1,1.726,312H4.881a1.727,1.727,0,0,1,1.726,1.726v3.214A1.727,1.727,0,0,1,4.881,318.667Z" transform="translate(0 -298.667)" fill="#55acee" fill-rule="evenodd"/>
      <path id="Path_606" data-name="Path 606" d="M405.881,318.667h-3.155A1.767,1.767,0,0,1,401,316.94v-3.214A1.727,1.727,0,0,1,402.726,312h3.155a1.727,1.727,0,0,1,1.726,1.726v3.214A1.727,1.727,0,0,1,405.881,318.667Z" transform="translate(-377.131 -298.667)" fill="#ff4141" fill-rule="evenodd"/>
      <path id="Path_607" data-name="Path 607" d="M5.92,199.042c-.119,0-.238,0-.3-.119l-2.738-2.679a.467.467,0,0,1,0-.655.645.645,0,0,1,.655,0L5.92,197.97,8.3,195.589a.541.541,0,0,1,.6,0,.467.467,0,0,1,0,.655l-2.679,2.679A.328.328,0,0,1,5.92,199.042Z" transform="translate(-2.586 -189.101)" fill="#29485a" fill-rule="evenodd"/>
      <path id="Path_608" data-name="Path 608" d="M406.86,199.042a.328.328,0,0,1-.3-.119l-2.679-2.679a.467.467,0,0,1,0-.655.541.541,0,0,1,.6,0l2.381,2.381,2.381-2.381a.645.645,0,0,1,.655,0,.467.467,0,0,1,0,.655l-2.679,2.679C407.158,199.042,406.979,199.042,406.86,199.042Z" transform="translate(-379.717 -189.101)" fill="#29485a" fill-rule="evenodd"/>
      <path id="Path_609" data-name="Path 609" d="M407.607,313.726A1.767,1.767,0,0,0,405.881,312h-3.155A1.736,1.736,0,0,0,401,313.488a2.531,2.531,0,0,1,.655-.119h3.214a1.715,1.715,0,0,1,1.667,1.726v3.452a1.748,1.748,0,0,0,1.071-1.607v-3.214Z" transform="translate(-377.131 -298.667)" fill="#e63535" fill-rule="evenodd"/>
      <path id="Path_610" data-name="Path 610" d="M207.607,89.726A1.767,1.767,0,0,0,205.881,88h-3.214A1.722,1.722,0,0,0,201,89.488a2.14,2.14,0,0,1,.655-.119h3.155a1.767,1.767,0,0,1,1.726,1.726v3.393a1.7,1.7,0,0,0,1.071-1.548V89.726Z" transform="translate(-189.036 -88)" fill="#e63535" fill-rule="evenodd"/>
      <path id="Path_611" data-name="Path 611" d="M207.607,313.726A1.767,1.767,0,0,0,205.881,312h-3.214A1.722,1.722,0,0,0,201,313.488a2.139,2.139,0,0,1,.655-.119h3.155a1.767,1.767,0,0,1,1.726,1.726v3.452a1.848,1.848,0,0,0,1.071-1.607v-3.214Z" transform="translate(-189.036 -298.667)" fill="#ffab00" fill-rule="evenodd"/>
      <path id="Path_612" data-name="Path 612" d="M6.607,313.726A1.767,1.767,0,0,0,4.881,312H1.726A1.736,1.736,0,0,0,0,313.488a2.139,2.139,0,0,1,.655-.119H3.869A1.757,1.757,0,0,1,5.536,315.1v3.452a1.748,1.748,0,0,0,1.071-1.607v-3.214Z" transform="translate(0 -298.667)" fill="#4f95ca" fill-rule="evenodd"/>
    </g>
  </g>
</svg>
