<svg xmlns="http://www.w3.org/2000/svg" width="22.42" height="18" viewBox="0 0 22.42 18">
  <path id="mail" d="M39.879,78.5a3.708,3.708,0,0,1-3.7,3.7H24.022a3.708,3.708,0,0,1-3.7-3.7V70.77a3.678,3.678,0,0,1,.511-1.873l5.93,5.93a4.731,4.731,0,0,0,6.68,0l5.93-5.93a3.678,3.678,0,0,1,.511,1.873V78.5Zm-3.7-11.437H24.022a3.692,3.692,0,0,0-2.244.76l5.99,5.992a3.31,3.31,0,0,0,4.661,0l5.99-5.992A3.691,3.691,0,0,0,36.175,67.065Zm0-1.429H24.022a5.14,5.14,0,0,0-5.134,5.134V78.5a5.138,5.138,0,0,0,5.134,5.134H36.175A5.138,5.138,0,0,0,41.308,78.5V70.77A5.14,5.14,0,0,0,36.175,65.636Z" transform="translate(-18.888 -65.636)" fill="#002c53" fill-rule="evenodd"/>
</svg>
