<svg xmlns="http://www.w3.org/2000/svg" width="28.578" height="17" viewBox="0 0 28.578 17"><g transform="translate(-0.002 -95.739)"><g transform="translate(0.002 95.739)"><g transform="translate(0)"><path d="M28.5,103.941a16.407,16.407,0,0,0-28.418,0,.6.6,0,0,0,0,.6,16.407,16.407,0,0,0,28.418,0A.6.6,0,0,0,28.5,103.941ZM22,109.45A15.215,15.215,0,0,1,1.29,104.239a15.215,15.215,0,0,1,26,0A15.306,15.306,0,0,1,22,109.45Z" transform="translate(-0.002 -95.739)" fill="#334a69"/></g></g><g transform="translate(8.941 98.889)"><g transform="translate(0 0)"><path d="M153.183,147.832a5.35,5.35,0,1,0,5.35,5.35A5.356,5.356,0,0,0,153.183,147.832Zm0,9.509a4.159,4.159,0,1,1,4.159-4.159A4.164,4.164,0,0,1,153.183,157.341Z" transform="translate(-147.833 -147.832)" fill="#334a69"/></g></g></g></svg>