<svg xmlns="http://www.w3.org/2000/svg" width="16.312" height="20" viewBox="0 0 16.312 20">
  <g id="sheet" transform="translate(-7.9 -2)">
    <g id="Group_176" data-name="Group 176" transform="translate(8.135 2.234)">
      <g id="Group_169" data-name="Group 169" transform="translate(1.185)">
        <g id="Group_164" data-name="Group 164" transform="translate(0 0)">
          <path id="Path_536" data-name="Path 536" d="M27.1,7.679V21.264a1.018,1.018,0,0,1-1.018,1.018H13.459a1.018,1.018,0,0,1-1.018-1.018V3.768A1.018,1.018,0,0,1,13.459,2.75H22.17Z" transform="translate(-12.442 -2.75)" fill="#fff"/>
        </g>
        <g id="Group_165" data-name="Group 165" transform="translate(13.077 3.349)" opacity="0.5">
          <path id="Path_537" data-name="Path 537" d="M54.288,13.465V29.648h.563a1.018,1.018,0,0,0,1.018-1.018V15.046Z" transform="translate(-54.288 -13.465)" fill="#eaeaea"/>
        </g>
        <g id="Group_166" data-name="Group 166" transform="translate(0 0)" opacity="0.5">
          <path id="Path_538" data-name="Path 538" d="M14.253,2.75h-.794a1.018,1.018,0,0,0-1.018,1.018v17.5a1.018,1.018,0,0,0,1.018,1.018h.794Z" transform="translate(-12.442 -2.75)" fill="#eaeaea"/>
        </g>
        <g id="Group_167" data-name="Group 167" transform="translate(3.075)" opacity="0.5">
          <path id="Path_539" data-name="Path 539" d="M22.283,2.75h.984V22.281h-.984Z" transform="translate(-22.283 -2.75)" fill="#eaeaea"/>
        </g>
        <g id="Group_168" data-name="Group 168" transform="translate(9.729 0)">
          <path id="Path_540" data-name="Path 540" d="M48.5,7.679H44.591a1.018,1.018,0,0,1-1.018-1.018V2.75Z" transform="translate(-43.573 -2.75)" fill="#f33"/>
        </g>
      </g>
      <g id="Group_174" data-name="Group 174" transform="translate(0 12.275)">
        <g id="Group_170" data-name="Group 170">
          <path id="Path_541" data-name="Path 541" d="M17.554,42.751v3.135a.721.721,0,0,1-.721.721H9.275a.625.625,0,0,1-.625-.625V42.655a.625.625,0,0,1,.625-.625h7.558a.721.721,0,0,1,.721.721Z" transform="translate(-8.65 -42.03)" fill="#f33"/>
        </g>
        <g id="Group_171" data-name="Group 171" transform="translate(0 0)">
          <path id="Path_542" data-name="Path 542" d="M10.741,42.031v4.577H9.275a.625.625,0,0,1-.625-.625V42.656a.625.625,0,0,1,.625-.625Z" transform="translate(-8.65 -42.031)" fill="#ef0a0a"/>
        </g>
        <g id="Group_172" data-name="Group 172" transform="translate(3.547 0)">
          <path id="Path_543" data-name="Path 543" d="M20,42.031h1.136v4.577H20Z" transform="translate(-20 -42.031)" fill="#ef0a0a"/>
        </g>
        <g id="Group_173" data-name="Group 173" transform="translate(2.122 1.324)">
          <path id="Path_544" data-name="Path 544" d="M16.209,46.268a.734.734,0,0,1,.49.149.54.54,0,0,1,.175.435.548.548,0,0,1-.175.438.725.725,0,0,1-.49.151h-.417v.581a.071.071,0,0,1-.07.07h-.211a.072.072,0,0,1-.07-.07V46.338a.072.072,0,0,1,.07-.07h.7Zm-.417.847h.4a.423.423,0,0,0,.237-.059.227.227,0,0,0,.089-.2.22.22,0,0,0-.089-.2.44.44,0,0,0-.237-.056h-.4Z" transform="translate(-15.44 -46.268)" fill="#fff"/>
          <path id="Path_545" data-name="Path 545" d="M21.651,46.268a.994.994,0,0,1,.335.051.613.613,0,0,1,.383.371,1.01,1.01,0,0,1,.061.3,3.536,3.536,0,0,1,0,.386,1.01,1.01,0,0,1-.061.3.646.646,0,0,1-.145.227.629.629,0,0,1-.233.145.955.955,0,0,1-.327.051h-.657a.072.072,0,0,1-.07-.07V46.338a.072.072,0,0,1,.07-.07h.644Zm.427.719a.519.519,0,0,0-.033-.155.353.353,0,0,0-.081-.125.37.37,0,0,0-.134-.083.555.555,0,0,0-.193-.03h-.349v1.173h.363a.516.516,0,0,0,.185-.03.364.364,0,0,0,.13-.082.341.341,0,0,0,.079-.125.531.531,0,0,0,.033-.156A3.537,3.537,0,0,0,22.078,46.987Z" transform="translate(-19.219 -46.268)" fill="#fff"/>
          <path id="Path_546" data-name="Path 546" d="M27.992,46.268a.071.071,0,0,1,.07.07v.185a.071.071,0,0,1-.07.07H27.16V47.1h.779a.071.071,0,0,1,.07.07v.185a.071.071,0,0,1-.07.07H27.16v.6a.071.071,0,0,1-.07.07h-.211a.071.071,0,0,1-.07-.07V46.338a.071.071,0,0,1,.07-.07Z" transform="translate(-23.256 -46.268)" fill="#fff"/>
        </g>
      </g>
      <g id="Group_175" data-name="Group 175" transform="translate(3.338 2.697)">
        <path id="Path_547" data-name="Path 547" d="M27.13,20.589a1.578,1.578,0,0,1-1.082-.5,10.113,10.113,0,0,1-.951-1.979c-.142-.037-.289-.07-.441-.1a13.425,13.425,0,0,0-1.888-.194,7.063,7.063,0,0,1-1.712,1.48,1.248,1.248,0,0,1-1.674-.508h0a.958.958,0,0,1,.156-.89,1.682,1.682,0,0,1,.791-.579,9.268,9.268,0,0,1,2.163-.133,10.3,10.3,0,0,0,.872-1.148,9.362,9.362,0,0,0,.564-1.009,14.686,14.686,0,0,1-.686-2.256c0-.783.463-1.4,1.054-1.4s1.052.613,1.052,1.4a8.407,8.407,0,0,1-.75,2.3c.3.816.645,1.725.963,2.517A5.7,5.7,0,0,1,27.538,18.6a1.681,1.681,0,0,1,.475.858.961.961,0,0,1-.233.874.9.9,0,0,1-.649.254Zm-1.248-2.218a8.1,8.1,0,0,0,.611,1.281c.309.309.7.383.844.24a.365.365,0,0,0,.061-.317,1.069,1.069,0,0,0-.3-.532A4.539,4.539,0,0,0,25.882,18.371Zm-5.912.205c.07.19.458.289.872.137a6.037,6.037,0,0,0,1.072-.9,7.453,7.453,0,0,0-1.368.1,1.069,1.069,0,0,0-.5.355.363.363,0,0,0-.078.311Zm3.31-1.353a13,13,0,0,1,1.49.176l.046.009c-.2-.512-.405-1.051-.6-1.574-.1.185-.212.368-.329.548C23.7,16.675,23.493,16.958,23.28,17.224ZM24.3,12.007c-.2,0-.429.33-.429.771a8.949,8.949,0,0,0,.422,1.43,6.908,6.908,0,0,0,.434-1.431c0-.441-.226-.77-.427-.77Z" transform="translate(-19.333 -11.382)" fill="#f91c1c"/>
      </g>
    </g>
    <g id="Group_178" data-name="Group 178" transform="translate(7.9 2)">
      <g id="Group_177" data-name="Group 177">
        <path id="Path_548" data-name="Path 548" d="M24.147,7c-.03-.031-4.885-4.89-4.945-4.943A.272.272,0,0,0,19.047,2H10.338A1.255,1.255,0,0,0,9.084,3.253V14.277H8.76a.86.86,0,0,0-.859.859v3.327a.86.86,0,0,0,.859.859h.325V20.75A1.253,1.253,0,0,0,10.338,22H22.959a1.253,1.253,0,0,0,1.253-1.25V7.166A.264.264,0,0,0,24.147,7ZM19.282,2.8l4.129,4.129H20.066a.784.784,0,0,1-.783-.783V2.8ZM8.369,18.463V15.136a.391.391,0,0,1,.391-.391h7.558a.487.487,0,0,1,.486.486v3.135a.487.487,0,0,1-.486.486H8.76a.391.391,0,0,1-.391-.391ZM23.744,20.75a.784.784,0,0,1-.784.781H10.338a.784.784,0,0,1-.784-.781V19.322h6.765a.956.956,0,0,0,.955-.955V15.232a.956.956,0,0,0-.955-.955H9.553V3.253a.785.785,0,0,1,.784-.784h8.476V6.147A1.253,1.253,0,0,0,20.066,7.4h3.678V20.75Z" transform="translate(-7.9 -2)"/>
      </g>
    </g>
  </g>
</svg>
