<svg xmlns="http://www.w3.org/2000/svg" width="60.82" height="75" viewBox="0 0 60.82 75">
  <g id="Layer_2_00000161628824174122363150000000951296371228825016_" transform="translate(-48.4 0)">
    <g id="PDF" transform="translate(48.4 0)">
      <path id="Path_621" data-name="Path 621" d="M149.335,20.713V65.962A9.034,9.034,0,0,1,140.3,75H104.438A9.034,9.034,0,0,1,95.4,65.962V9.038A9.024,9.024,0,0,1,104.438,0h24.185Z" transform="translate(-88.515 0)" fill="#ededed"/>
      <path id="Path_622" data-name="Path 622" d="M342.913,20.713H325.935a3.732,3.732,0,0,1-3.735-3.735V0Z" transform="translate(-282.093 0)" fill="#f15642"/>
      <path id="Path_623" data-name="Path 623" d="M53.937,210.7H98.805a5.533,5.533,0,0,1,5.537,5.537v13.477a5.533,5.533,0,0,1-5.537,5.537H53.937a5.533,5.533,0,0,1-5.537-5.537V216.237A5.533,5.533,0,0,1,53.937,210.7Z" transform="translate(-48.4 -179.836)" fill="#f15642"/>
      <g id="Group_219" data-name="Group 219" transform="translate(13.975 35.625)">
        <path id="Path_624" data-name="Path 624" d="M152.311,248c0,3.12-1.655,4.849-4.57,4.849h-1.787v5.229H143.8V243.2h3.926c2.93,0,4.585,1.772,4.585,4.8Zm-2.183,0c0-1.831-.791-2.769-2.4-2.769h-1.758V250.8h1.758C149.337,250.817,150.128,249.924,150.128,248Z" transform="translate(-143.8 -243.2)" fill="#fff"/>
        <path id="Path_625" data-name="Path 625" d="M214.315,243.2h3.691c2.886,0,4.585,1.7,4.585,4.629V253.4c0,2.944-1.7,4.673-4.57,4.673H214.3V243.2Zm3.721,12.832c1.523,0,2.4-.908,2.4-2.681v-5.479c0-1.743-.85-2.637-2.4-2.637h-1.582v10.8Z" transform="translate(-203.973 -243.2)" fill="#fff"/>
        <path id="Path_626" data-name="Path 626" d="M290.539,245.221v4.438h4.482v1.948h-4.482v6.46H288.4V243.2h7.017v2.021Z" transform="translate(-267.218 -243.2)" fill="#fff"/>
      </g>
    </g>
  </g>
</svg>
