<svg xmlns="http://www.w3.org/2000/svg" width="30" height="30" viewBox="0 0 30 30">
  <g id="apps" transform="translate(-6 -6)">
    <path id="Path_737" data-name="Path 737" d="M7.875,19.75h10a1.877,1.877,0,0,0,1.875-1.875v-10A1.877,1.877,0,0,0,17.875,6h-10A1.877,1.877,0,0,0,6,7.875v10A1.877,1.877,0,0,0,7.875,19.75ZM7.25,7.875a.626.626,0,0,1,.625-.625h10a.626.626,0,0,1,.625.625v10a.626.626,0,0,1-.625.625h-10a.626.626,0,0,1-.625-.625Z" fill="#fff"/>
    <path id="Path_738" data-name="Path 738" d="M43.875,6h-10A1.877,1.877,0,0,0,32,7.875v10a1.877,1.877,0,0,0,1.875,1.875h10a1.877,1.877,0,0,0,1.875-1.875v-10A1.877,1.877,0,0,0,43.875,6ZM44.5,17.875a.626.626,0,0,1-.625.625h-10a.626.626,0,0,1-.625-.625v-10a.626.626,0,0,1,.625-.625h10a.626.626,0,0,1,.625.625Z" transform="translate(-9.75)" fill="#fff"/>
    <path id="Path_739" data-name="Path 739" d="M7.875,45.75h10a1.877,1.877,0,0,0,1.875-1.875v-10A1.877,1.877,0,0,0,17.875,32h-10A1.877,1.877,0,0,0,6,33.875v10A1.877,1.877,0,0,0,7.875,45.75ZM7.25,33.875a.626.626,0,0,1,.625-.625h10a.626.626,0,0,1,.625.625v10a.626.626,0,0,1-.625.625h-10a.626.626,0,0,1-.625-.625Z" transform="translate(0 -9.75)" fill="#fff"/>
    <path id="Path_740" data-name="Path 740" d="M43.875,32h-10A1.877,1.877,0,0,0,32,33.875v10a1.877,1.877,0,0,0,1.875,1.875h10a1.877,1.877,0,0,0,1.875-1.875v-10A1.877,1.877,0,0,0,43.875,32ZM44.5,43.875a.626.626,0,0,1-.625.625h-10a.626.626,0,0,1-.625-.625v-10a.626.626,0,0,1,.625-.625h10a.626.626,0,0,1,.625.625Z" transform="translate(-9.75 -9.75)" fill="#fff"/>
  </g>
</svg>
