<svg xmlns="http://www.w3.org/2000/svg" width="16.769" height="22" viewBox="0 0 16.769 22">
  <g id="user" transform="translate(-4.697 -1.16)">
    <path id="Path_5" data-name="Path 5" d="M16.232,23.158c-.048.005-6.235,0-6.287,0a5.4,5.4,0,0,1-3.809-1.58A4.835,4.835,0,0,1,4.7,18.126a8.22,8.22,0,0,1,5.445-7.809,5.042,5.042,0,1,1,5.851-.017c3.638.993,7.451,7.051,4.3,10.913a5.212,5.212,0,0,1-4.066,1.945ZM9.945,21.675h6.244A3.788,3.788,0,0,0,19.9,17.1a6.765,6.765,0,0,0-7.36-5.809,6.749,6.749,0,0,0-6.357,6.858,3.707,3.707,0,0,0,3.765,3.523ZM13.094,2.642a3.553,3.553,0,1,0,3.56,3.546,3.553,3.553,0,0,0-3.56-3.546Z" transform="translate(0)" fill="#002c53"/>
  </g>
</svg>
