<svg xmlns="http://www.w3.org/2000/svg" xmlns:xlink="http://www.w3.org/1999/xlink" width="18" height="18" viewBox="0 0 18 18">
  <defs>
    <clipPath id="clip-path">
      <path id="path63" d="M0-682.665H18v18H0Z" transform="translate(0 682.665)"/>
    </clipPath>
  </defs>
  <g id="g57" transform="translate(0 682.665)">
    <g id="g59" transform="translate(0 -682.665)">
      <g id="g61" clip-path="url(#clip-path)">
        <g id="g67" transform="translate(0.527 0.887)">
          <path id="path69" d="M-275.333-23.32a1.133,1.133,0,0,1,1.016-.632,1.133,1.133,0,0,1,1.016.632l1.741,3.527a1.134,1.134,0,0,0,.853.62l3.892.566a1.133,1.133,0,0,1,.915.771,1.133,1.133,0,0,1-.287,1.162L-269-13.929a1.133,1.133,0,0,0-.326,1l.665,3.877a1.133,1.133,0,0,1-.451,1.108,1.134,1.134,0,0,1-1.194.086l-3.481-1.83a1.134,1.134,0,0,0-1.055,0l-3.481,1.83a1.134,1.134,0,0,1-1.194-.086,1.133,1.133,0,0,1-.451-1.108l.665-3.877a1.134,1.134,0,0,0-.326-1l-2.816-2.745a1.133,1.133,0,0,1-.287-1.162,1.133,1.133,0,0,1,.915-.771l3.892-.566a1.134,1.134,0,0,0,.853-.62Z" transform="translate(282.789 23.952)" fill="none" stroke="#989898" stroke-linecap="round" stroke-linejoin="round" stroke-width="1"/>
        </g>
      </g>
    </g>
  </g>
</svg>
