<svg xmlns="http://www.w3.org/2000/svg" width="19.2" height="24" viewBox="0 0 19.2 24">
  <g id="user" transform="translate(-4 -2)">
    <path id="Path_651" data-name="Path 651" d="M12.985,13.755A5.878,5.878,0,1,0,7.077,7.878,5.893,5.893,0,0,0,12.985,13.755Z" transform="translate(0.615)" fill="#fff"/>
    <path id="Path_652" data-name="Path 652" d="M16.677,13.837H10.523A6.55,6.55,0,0,0,4,20.327a2.075,2.075,0,0,0,1.108,1.959c1.108.612,3.569,1.347,8.492,1.347s7.385-.735,8.492-1.347A2.316,2.316,0,0,0,23.2,20.327,6.471,6.471,0,0,0,16.677,13.837Z" transform="translate(0 2.367)" fill="#fff"/>
  </g>
</svg>
