<svg xmlns="http://www.w3.org/2000/svg" width="28.357" height="20" viewBox="0 0 28.357 20">
  <g id="Layer_97" data-name="Layer 97" transform="translate(-2.14 -10.94)">
    <path id="Path_2" data-name="Path 2" d="M27.084,24.038a2.43,2.43,0,0,1,.266,0l.171-1.425a3.324,3.324,0,0,0-.437-.024,4.449,4.449,0,0,0-4.444,4.468,3.4,3.4,0,0,0,.024.442l1.424-.18a2.342,2.342,0,0,1,0-.261,3.02,3.02,0,0,1,3-3.02Z" transform="translate(-10.766 -6.118)" fill="#334a69"/>
    <path id="Path_3" data-name="Path 3" d="M8.451,26.611a26.182,26.182,0,0,1-4.52-4.364c1.32-1.624,6.439-7.393,12.388-7.393a10.689,10.689,0,0,1,3.737.717l.5-1.334a12.07,12.07,0,0,0-4.236-.807c-7.6,0-13.618,8.072-13.87,8.4l-.309.423.309.423A27.179,27.179,0,0,0,7.6,27.751Z" transform="translate(0 -1.308)" fill="#334a69"/>
    <path id="Path_4" data-name="Path 4" d="M34.81,20.517a27.18,27.18,0,0,0-5.147-5.081c-.427-.318-.869-.613-1.315-.9l2.593-2.593L29.933,10.94,10.94,29.933l1.007,1.007L14.8,28.091a16.913,16.913,0,0,0,1.9.869,12.17,12.17,0,0,0,4.245.8c7.6,0,13.618-8.072,13.87-8.4l.309-.423Zm-10.864.161a2.342,2.342,0,0,1,0,.261,3.02,3.02,0,0,1-3.006,3.02h-.285a3.072,3.072,0,0,1-1.282-.432l4.141-4.136a3.063,3.063,0,0,1,.432,1.287ZM20.94,28.333a10.745,10.745,0,0,1-3.732-.712c-.446-.171-.9-.37-1.349-.594l2.483-2.483a4.383,4.383,0,0,0,2.16.817,3.324,3.324,0,0,0,.437,0,4.449,4.449,0,0,0,4.444-4.421,2.73,2.73,0,0,0,0-.413,4.416,4.416,0,0,0-.817-2.184l2.768-2.768c.508.313,1.011.641,1.5,1a26.182,26.182,0,0,1,4.5,4.364c-1.32,1.624-6.439,7.393-12.388,7.393Z" transform="translate(-4.621)" fill="#334a69"/>
  </g>
</svg>
