<svg xmlns="http://www.w3.org/2000/svg" width="22.657" height="16" viewBox="0 0 22.657 16">
  <g id="Layer-1" transform="translate(-91.667 -377.974)">
    <path id="Path_1" data-name="Path 1" d="M114.3,386.283a1.772,1.772,0,0,1-.431.881l-5.478,6.21a1.775,1.775,0,0,1-2.662-2.348l2.89-3.276H93.442a1.775,1.775,0,1,1,0-3.55h15.174l-2.89-3.276a1.775,1.775,0,0,1,2.662-2.348l5.476,6.208a1.773,1.773,0,0,1,.459,1.191h0a1.781,1.781,0,0,1-.027.308Zm-.966-.509a.8.8,0,0,0-.042-.123h0a.8.8,0,0,0-.141-.218l0-.005-5.48-6.212a.807.807,0,0,0-1.21,1.068l3.6,4.08a.484.484,0,0,1-.363.8H93.442a.807.807,0,1,0,0,1.614h16.247a.484.484,0,0,1,.363.8l-3.6,4.08a.807.807,0,1,0,1.21,1.068l5.48-6.212,0-.005a.8.8,0,0,0,.138-.211h0l.009-.022a.805.805,0,0,0,.061-.3v-.005a.81.81,0,0,0-.025-.2Z" fill="#002c53" fill-rule="evenodd"/>
  </g>
</svg>
